<svg width="112" height="81" viewBox="0 0 112 81" fill="none" xmlns="http://www.w3.org/2000/svg">
<path d="M111.842 77.6613C111.759 77.2632 111.664 76.9084 111.617 76.6649C111.219 74.6094 109.768 71.4763 102.357 67.6059C94.6659 63.5898 91.737 64.6181 85.346 61.466C83.2934 60.4536 81.4774 59.3025 79.8776 58.1063C79.1401 57.5549 78.4489 56.9939 77.8016 56.4325C77.6619 55.4853 77.4343 54.563 77.1262 53.6726L73.9557 41.4575L73.9546 41.4577C73.6175 40.1771 73.0169 38.9669 72.197 37.8588C71.831 37.3641 71.4204 36.8903 70.9707 36.4392C71.664 36.547 72.2476 36.4925 72.4973 36.4666C74.1178 36.2984 74.5207 35.5662 75.4038 35.8185C75.6842 35.8987 75.8534 36.0326 75.9883 36.1942C76.2764 36.5393 76.4074 37.0107 77.1267 37.3555C78.1832 37.862 78.7781 37.2652 79.7576 37.7408C80.8535 38.2731 80.402 39.1628 81.5024 39.8844C82.6881 40.6619 83.7128 39.9572 84.6895 40.7697C85.4448 41.3979 84.9943 41.9543 85.8156 42.7253C85.9045 42.8088 87.1044 43.8979 88.6984 43.5595C88.8414 43.5292 89.7827 43.3265 90.3773 42.6427C90.5114 42.4884 90.6281 42.3098 90.7138 42.1029C91.0263 41.3485 90.8034 40.5257 90.3182 40.0174C89.6965 39.3662 89.024 39.629 88.5631 39.0499C88.0932 38.4594 88.601 37.9456 88.5778 37.0684C88.5744 36.9406 88.5599 36.8052 88.5293 36.6606C88.2525 35.3518 87.1333 35.49 86.355 33.828C85.8801 32.8138 86.211 32.579 85.6094 31.3052C85.3137 30.679 85.0233 30.0642 84.4005 29.4899C83.2206 28.4019 82.1985 28.7038 81.2428 27.8985C81.5641 27.8559 81.9202 27.8506 82.3025 27.9288C83.6039 28.1951 83.67 29.1073 85.0723 29.5174C86.3897 29.9028 86.8344 29.2447 87.7866 29.6879C88.8487 30.1822 88.7163 31.1966 89.3559 31.7788C89.475 31.8872 89.6208 31.9807 89.8061 32.053C90.834 32.4539 91.5153 31.5963 92.553 32.0231C93.6675 32.4815 93.3328 33.6566 94.416 34.0136C95.3824 34.3322 96.2498 33.5947 96.8917 34.0649C97.2772 34.3473 97.0534 34.6785 97.4548 35.03C98.0233 35.5278 99.3522 35.6342 100.085 34.9648C100.31 34.7592 100.446 34.5099 100.515 34.258C100.588 33.9877 100.585 33.7142 100.528 33.4878C100.394 32.9514 100.03 32.9298 99.7874 32.4454C99.3087 31.4875 100.362 30.8288 100.093 29.8055C99.9158 29.1314 99.3723 29.0886 98.7792 28.6292C98.5869 28.4802 98.3894 28.2877 98.1974 28.0153C97.2358 26.6511 98.0557 25.62 97.1056 24.9511C96.3102 24.3912 95.3588 24.8485 94.8264 24.1888C94.4908 23.773 94.7967 23.5018 94.5554 22.8453C94.2247 21.9455 93.1565 21.1117 92.0396 21.0302C90.8631 20.9443 90.3774 21.7474 89.6211 21.4634C88.9247 21.2019 89.2227 20.4786 88.3517 19.7466C87.9277 19.3902 87.4358 19.208 86.8687 19.0716C86.8689 19.0717 86.8691 19.0716 86.8693 19.0717C87.8698 19.1515 88.3778 19.4861 88.9078 19.6843C89.2133 19.7985 89.5261 19.8676 89.9448 19.816C91.2877 19.6507 91.4704 18.5239 92.75 18.4948C93.7444 18.4723 93.9527 19.1456 94.9143 19.0402C95.7339 18.9504 96.5568 18.3545 96.8425 17.587C96.9407 17.3231 96.9636 17.0691 96.9405 16.8331C96.8663 16.076 96.313 15.5055 96.2071 15.4001C95.405 14.6015 94.6485 14.9285 93.3902 14.3241C93.3147 14.2878 93.2376 14.2487 93.1584 14.2052C91.5415 13.3193 91.9132 12.3807 90.6297 11.9593C89.1161 11.4623 88.2333 12.6478 86.8283 12.1258C85.4895 11.6284 85.8664 10.394 84.4553 9.81437C83.1442 9.27587 82.4569 10.1928 80.8902 9.71733C79.353 9.25078 79.3341 8.16149 77.9769 7.84671C77.3226 7.69496 76.4223 7.7389 75.1876 8.35915C72.1545 5.41697 68.0359 3.07301 63.2483 1.62492C59.7914 0.579301 55.9866 0 51.9907 0C42.1479 0 33.4623 3.51127 28.2887 8.86318C27.1528 8.21328 26.3958 8.25926 25.8818 8.50406C24.9296 8.95759 25.0088 9.99933 23.9397 10.618C22.8501 11.2486 22.2761 10.4509 21.3762 11.1128C20.4077 11.8251 20.7848 12.9607 19.8614 13.5865C18.8925 14.2432 18.1546 13.2113 17.105 13.8564C16.215 14.4033 16.5632 15.2572 15.4724 16.2852C15.4189 16.3355 15.3667 16.3816 15.3153 16.4247C14.4591 17.1435 13.8855 16.9168 13.375 17.7694C13.3076 17.882 12.9571 18.4888 12.9681 19.2198C12.9715 19.4477 13.0097 19.6875 13.1031 19.9283C13.3745 20.6286 14.019 21.1045 14.6179 21.0977C15.3206 21.0898 15.4134 20.4238 16.1327 20.3331C17.0583 20.2165 17.2861 21.2714 18.2689 21.2776C18.5754 21.2796 18.7951 21.1784 19.0058 21.0349C19.3712 20.786 19.7092 20.4094 20.424 20.2203C20.4242 20.2203 20.4244 20.2203 20.4245 20.2202C20.027 20.4144 19.6877 20.6437 19.4122 21.0317C18.8463 21.8285 19.123 22.4853 18.6429 22.8134C18.1215 23.1698 17.7027 22.4581 16.8613 22.6727C16.0625 22.8765 15.3631 23.7928 15.2012 24.6889C15.0831 25.3427 15.3269 25.567 15.1202 26.0017C14.7924 26.6914 14.0671 26.3623 13.5411 26.9864C12.9127 27.7319 13.5921 28.6236 13.0147 30.034C12.8995 30.3157 12.7734 30.5217 12.6474 30.6855C12.2587 31.1909 11.8703 31.293 11.8 31.9564C11.6933 32.9633 12.5091 33.4733 12.2454 34.4415C12.1121 34.9311 11.851 34.9929 11.8 35.5199C11.7785 35.7424 11.7991 36.0038 11.8753 36.2534C11.9463 36.4862 12.0655 36.7087 12.2454 36.8796C12.8312 37.4358 13.7808 37.1843 14.1485 36.6452C14.4081 36.2644 14.2184 35.9735 14.4724 35.6605C14.8954 35.1394 15.584 35.7454 16.254 35.3323C17.0049 34.8694 16.6633 33.7857 17.4282 33.2224C18.1404 32.698 18.705 33.4396 19.4122 32.9411C19.5398 32.8512 19.637 32.7455 19.7137 32.6286C20.1254 32.0008 19.9434 31.0476 20.6674 30.456C21.3166 29.9256 21.6935 30.5035 22.611 29.9872C23.5876 29.4375 23.5575 28.5594 24.4736 28.1586C24.7427 28.0408 25 28.0056 25.2354 28.0101C24.6147 28.8865 23.8516 28.7136 23.0932 29.8851C22.6929 30.5035 22.5359 31.123 22.3759 31.754C22.0506 33.0376 22.3093 33.2243 22.0531 34.2459C21.6334 35.92 20.8142 35.9143 20.7261 37.1946C20.7164 37.336 20.7175 37.4669 20.7259 37.5893C20.784 38.4291 21.1941 38.8622 20.9055 39.4788C20.6224 40.0835 20.1148 39.9086 19.7219 40.6002C19.4152 41.14 19.3246 41.9505 19.6143 42.6352C19.6938 42.823 19.7931 42.9803 19.9031 43.1124C20.3903 43.698 21.0866 43.7853 21.1924 43.7981C22.3711 43.9412 23.1438 42.7664 23.2008 42.6767C23.7276 41.8482 23.3551 41.3681 23.8464 40.6833C24.4817 39.7976 25.281 40.3546 26.07 39.4788C26.8024 38.666 26.4008 37.8678 27.146 37.2361C27.812 36.6717 28.292 37.1742 29.011 36.5716C29.5005 36.1614 29.5548 35.6967 29.7332 35.3348C29.8167 35.1654 29.9274 35.0185 30.1228 34.9104C30.7384 34.5699 31.0914 35.2234 32.2747 35.2011C32.2933 35.2008 32.3145 35.2003 32.338 35.1996C32.8338 35.5297 33.3459 35.8478 33.8739 36.1525C35.7858 37.2561 37.903 38.1872 40.1769 38.9159C40.1736 38.9325 40.1704 38.9492 40.1671 38.9659C40.1244 39.1826 40.0767 39.4248 40.031 39.6839C39.8843 40.5153 39.7581 41.5206 39.8838 42.4156C39.263 42.915 38.5561 43.6936 38.2897 44.7872C37.9181 46.3125 38.5658 47.7841 38.9931 48.7548C39.1467 49.104 39.3015 49.394 39.43 49.6164C39.4602 49.6688 39.4895 49.7186 39.5164 49.7632C39.5164 50.1562 39.7039 50.5046 39.9935 50.7265C39.2393 51.2491 38.6171 51.9625 38.1375 52.7388C37.6916 53.4608 37.3048 54.2706 37.1362 55.1042C37.0319 55.62 36.9875 56.147 36.9251 56.6689C36.917 56.7361 36.9088 56.8033 36.9003 56.8705C36.8987 56.8828 36.8971 56.8951 36.8955 56.9075C36.87 57.0777 36.8454 57.2479 36.8168 57.4177C36.7562 57.7774 36.6834 58.1349 36.6111 58.4924C36.531 58.8883 36.4473 59.2839 36.3522 59.6766C35.6214 59.7222 35.0126 60.2945 34.9434 61.0464C34.9239 61.259 34.9499 61.4651 35.0126 61.6558C35.0229 61.9949 35.1204 62.2662 35.1832 62.6326C35.0631 62.8219 34.936 63.0066 34.8023 63.1871C34.8009 63.1891 34.8001 63.1902 34.7988 63.192C34.795 63.1965 34.7914 63.2009 34.7865 63.2069C34.7394 63.2648 34.6926 63.3228 34.6445 63.3799C34.5424 63.501 34.4372 63.6195 34.3288 63.7352C34.2332 63.8373 34.1351 63.9372 34.035 64.035C34.0348 64.0347 34.0344 64.0342 34.0342 64.0339C34.0333 64.0325 34.0325 64.0311 34.0316 64.0296C33.8876 63.7891 33.7668 63.5065 33.7039 63.211C33.6529 62.9714 33.6355 62.7688 33.6302 62.5889C33.6585 62.4976 33.6781 62.4022 33.6872 62.3032C33.7163 61.9877 33.6365 61.688 33.4805 61.4386C33.4784 61.4347 33.4768 61.4309 33.4746 61.427C33.2358 61.0055 32.7633 60.7154 32.2622 60.7836C31.5661 60.8017 30.9779 61.3373 30.9125 62.0478C30.8571 62.6499 31.1943 63.1963 31.7127 63.4376C31.9566 63.6682 32.2532 63.8589 32.5054 64.2534C32.6724 64.5148 32.7611 64.7745 32.7984 65.0551C32.0699 65.5585 31.2875 65.9829 30.479 66.3432C30.4049 66.3763 30.0503 66.5235 30.3509 66.401C30.2548 66.4402 30.1593 66.4805 30.063 66.5191C29.8818 66.5917 29.6994 66.6614 29.5162 66.7287C29.1728 66.8548 28.8266 66.9758 28.4778 67.0858C27.9881 67.2402 27.4873 67.3446 26.9928 67.4802C26.4356 67.633 25.9014 67.878 25.4031 68.1684C24.2871 68.8189 23.3531 69.7062 22.5692 70.7249C22.1495 71.2702 21.8092 71.8537 21.4728 72.4514C21.4074 72.5676 21.3358 72.6801 21.2581 72.7884C21.2543 72.7936 21.2505 72.7986 21.2467 72.8038C21.2014 72.8584 21.1558 72.9126 21.1083 72.9654C20.9966 73.0893 20.8782 73.2072 20.7551 73.3198C20.6894 73.38 20.6222 73.4386 20.554 73.4959C20.5176 73.5264 20.4506 73.5778 20.4034 73.6138C20.0741 73.852 19.7362 74.0737 19.3817 74.2738C18.8951 74.5484 18.3906 74.7904 17.8777 75.0115C17.8669 75.0162 17.856 75.0208 17.8451 75.0254C17.7729 75.0552 17.7006 75.0852 17.6281 75.1145C17.4743 75.1765 17.3199 75.2369 17.1648 75.2957C16.8238 75.4252 16.4801 75.5474 16.1344 75.6638C14.3746 76.2563 12.5683 76.7077 10.754 77.0981C8.21045 77.6453 5.64056 78.0671 3.06458 78.4283C2.87729 78.4545 2.68994 78.4805 2.50254 78.5061C2.44837 78.5135 2.3942 78.5208 2.34003 78.5281C2.33565 78.5287 2.31527 78.5315 2.29586 78.5341C2.27695 78.5366 2.2577 78.5392 2.25352 78.5398C2.19848 78.5471 2.14344 78.5545 2.08839 78.5617C1.69509 78.6138 1.3016 78.6644 0.907964 78.7138C0.438937 78.7728 -0.0229515 79.0888 0.000884476 79.6209C0.0206235 80.0616 0.403708 80.5914 0.907964 80.528C3.7732 80.168 6.63343 79.7524 9.46973 79.2067C11.4647 78.8229 13.4521 78.3786 15.3999 77.7982C16.8 77.3811 18.1869 76.8906 19.5037 76.254C20.38 75.8303 21.2215 75.3231 21.954 74.6779C22.516 74.1829 22.9048 73.5931 23.2701 72.9482C23.4581 72.6162 23.6613 72.293 23.8823 71.9819C23.9366 71.9056 23.9928 71.8307 24.0486 71.7556C24.0575 71.7439 24.0661 71.7319 24.075 71.7209C24.1202 71.665 24.1651 71.609 24.2111 71.5538C24.3889 71.3403 24.5759 71.1344 24.7719 70.9374C24.9776 70.7308 25.1933 70.5339 25.4186 70.3487C25.4337 70.3363 25.4998 70.284 25.5365 70.2546C25.5767 70.2248 25.6409 70.1768 25.6531 70.168C25.7824 70.0746 25.9144 69.985 26.049 69.8993C26.3144 69.7301 26.5899 69.5751 26.8745 69.4404C26.8888 69.4336 26.9502 69.4066 26.9878 69.3898C27.0109 69.3806 27.0326 69.372 27.042 69.3684C27.1495 69.3282 27.2584 69.2922 27.3685 69.2599C27.8485 69.1187 28.3404 69.0239 28.8196 68.8786C29.187 68.7671 29.5508 68.6406 29.9118 68.5097C30.7908 68.191 31.6565 67.822 32.4793 67.3768C32.517 67.3565 32.5541 67.3346 32.5916 67.3139C32.5699 67.4725 32.5485 67.6387 32.5285 67.8139C32.448 68.5192 32.3686 69.1155 32.3164 69.6404C32.2094 70.7156 32.2173 71.49 32.5687 72.2781C32.6198 72.3928 33.5397 74.381 35.2785 74.599C35.9146 74.6788 36.5409 74.5065 37.1107 74.1835L37.1612 74.3437L46.5942 70.9235C47.2711 71.4899 47.9947 72.012 48.7596 72.4838C48.7491 72.5801 48.7389 72.6751 48.7297 72.7673C48.6102 73.9684 48.619 74.8335 49.0115 75.7138C49.0687 75.842 50.0964 78.0631 52.0389 78.3067C52.7494 78.3958 53.4491 78.2033 54.0856 77.8425L54.1421 78.0214L61.7005 75.2809C65.5929 74.833 69.1101 73.3075 71.8698 71.048C79.075 75.3226 84.4132 76.0967 88.1644 75.8596C89.8593 75.7525 91.5569 75.7836 93.2554 75.8499C95.5418 76.3953 97.8815 76.7376 100.209 76.9702C100.848 77.034 101.488 77.0878 102.128 77.1338C102.602 77.1678 103.056 76.6922 103.035 76.2267C103.034 76.194 103.031 76.162 103.027 76.1307C104.617 76.274 105.992 76.6764 106.886 77.7721C107.593 78.6377 107.946 79.8699 109.302 80.3891C109.397 80.4255 110.762 80.9294 111.516 80.2884C112.168 79.7344 112.035 78.5816 111.842 77.6613ZM40.9105 52.2923C40.9128 52.2926 40.8742 52.3209 40.8467 52.3412C40.8711 52.3196 40.9042 52.2916 40.9105 52.2923ZM56.0374 47.5046C55.9764 47.655 55.9153 47.8047 55.8538 47.9535C55.9152 47.8046 55.9765 47.655 56.0374 47.5046ZM55.8332 48.0032C55.7761 48.1412 55.7189 48.2788 55.6614 48.4154C55.7189 48.2787 55.7761 48.1412 55.8332 48.0032ZM45.453 50.0146C45.4354 49.9329 45.4182 49.8515 45.401 49.7701C45.4181 49.8514 45.4356 49.933 45.4531 50.0145L45.453 50.0146ZM44.5069 44.7397C44.5964 45.3584 44.6947 45.9865 44.8027 46.6238C44.9218 47.3274 45.052 48.0413 45.1956 48.7663C45.2454 49.0174 45.2969 49.2699 45.3495 49.5234C45.0061 47.8749 44.7282 46.2775 44.5062 44.7398C44.5064 44.7398 44.5067 44.7397 44.5069 44.7397ZM55.1181 49.6756C55.0224 49.8922 54.9265 50.1077 54.8301 50.3208C54.9265 50.1077 55.0224 49.8923 55.1181 49.6756ZM55.4618 48.8858C55.3679 49.1051 55.2734 49.3223 55.1786 49.5381C55.2733 49.3222 55.3679 49.1051 55.4618 48.8858ZM56.2342 47.0145C56.2807 46.8977 56.327 46.7806 56.3732 46.663C56.327 46.7808 56.2807 46.8977 56.2342 47.0145ZM41.9092 49.477C41.8931 49.4108 41.8729 49.3462 41.8464 49.2847C41.8465 49.2846 41.8465 49.2846 41.8465 49.2845C41.8841 49.213 41.9107 49.1268 41.9422 49.0447C42.0092 49.312 42.0596 49.5824 42.0932 49.8545C42.0414 49.8645 41.99 49.8764 41.9384 49.8878C41.9426 49.8469 41.9447 49.8053 41.9447 49.7633C41.9447 49.6644 41.9316 49.5689 41.9092 49.477ZM38.606 57.6529C38.6948 57.0792 38.7704 56.4994 38.8275 55.9213C38.8343 55.8758 38.8413 55.8303 38.849 55.7849C38.8676 55.6743 38.8889 55.5641 38.9139 55.4548C38.9631 55.2393 39.0272 55.0275 39.105 54.8206C39.1116 54.8031 39.1309 54.7554 39.1445 54.7213C39.1589 54.6889 39.1748 54.653 39.1814 54.6387C39.2164 54.5632 39.2527 54.4885 39.2893 54.4138C39.3614 54.2666 39.4361 54.1207 39.5154 53.9773C39.6123 53.8021 39.7156 53.6305 39.8261 53.4635C39.8882 53.3698 39.9534 53.2786 40.0191 53.1874C40.0223 53.183 40.0243 53.1801 40.027 53.1764C40.0616 53.134 40.0957 53.0914 40.1311 53.0496C40.3029 52.8464 40.4884 52.6546 40.6877 52.4783C40.731 52.4401 40.7749 52.4025 40.8194 52.3657C40.8193 52.3658 40.8269 52.3588 40.8374 52.3495C40.8397 52.3479 40.8417 52.3465 40.8446 52.3445C40.9697 52.2578 41.0924 52.1701 41.223 52.0916C41.3492 52.0157 41.4792 51.9459 41.6121 51.8825C41.6222 51.8777 41.6324 51.873 41.6427 51.8684C41.6971 51.8695 41.8357 51.7912 41.8843 51.7746C41.9438 51.7542 42.0037 51.7356 42.064 51.7177C41.9892 52.2003 41.8624 52.6775 41.6828 53.1407C41.0133 54.8677 40.6493 56.7232 40.6493 58.6552C40.6493 60.2292 40.8918 61.752 41.3433 63.1963C41.3108 63.2249 41.2782 63.2536 41.2452 63.2826C41.0393 62.9031 40.6538 62.6301 40.1915 62.5875C39.5457 62.5281 39.0125 62.9545 38.7872 63.5371C38.7525 63.6269 38.7702 63.8281 38.6277 64.0309C38.6147 64.0494 38.6008 64.0679 38.585 64.0863C37.6106 64.8662 37.3249 64.8268 37.1226 64.7285C36.9569 64.648 36.8964 64.3067 36.9238 63.9137C36.9445 63.6169 37.0152 63.2907 37.129 63.0251C37.2587 62.7226 37.3736 62.4885 37.4717 62.2945C37.7371 62.0499 37.9175 61.7112 37.9532 61.3234C37.968 61.1627 37.9568 61.0057 37.9235 60.8562C38.237 59.811 38.441 58.7195 38.606 57.6529Z" fill="#C1B5FF"/>
<path d="M107.602 72.3304C102.234 67.2783 95.5538 65.7709 91.9873 65.0086C89.7524 64.5309 89.8239 64.739 88.5505 64.3602C84.7762 63.2373 81.9578 60.7571 79.8776 58.1063C77.8884 56.619 76.2337 55.062 74.878 53.615L69.7632 64.3561C72.0068 63.8307 74.8898 64.2494 75.8042 65.5941C76.5194 66.6456 75.6024 67.6336 76.1421 69.3779C76.9842 72.0996 80.343 73.3333 82.1556 73.9725C86.0971 75.3623 88.1519 74.6553 93.3044 74.9185C95.8482 75.0484 100.4 75.281 102.972 76.1257C104.585 76.2647 105.982 76.6639 106.886 77.7721C107.593 78.6377 107.946 79.8699 109.302 80.3891C109.397 80.4255 110.762 80.9294 111.516 80.2885C112.168 79.7345 112.035 78.5816 111.842 77.6614C110.354 75.1454 108.765 73.4248 107.602 72.3304Z" fill="#FF2D77"/>
<path d="M82.1557 73.9725C80.343 73.3333 76.9842 72.0995 76.1421 69.3778C75.6024 67.6335 76.5194 66.6456 75.8043 65.594C74.8898 64.2494 72.0068 63.8306 69.7632 64.356L67.8322 68.4112C77.1196 75.0152 83.7437 76.139 88.1644 75.8596C92.0157 75.6162 95.8808 76.0864 99.7397 76.0609C100.858 76.0535 101.958 76.0383 102.972 76.1257C100.4 75.281 95.8482 75.0483 93.3044 74.9184C88.1519 74.6553 86.0971 75.3622 82.1557 73.9725Z" fill="#E62769"/>
<path d="M102.357 67.6059C94.666 63.5898 91.7371 64.6181 85.3461 61.466C83.2936 60.4536 81.4775 59.3025 79.8777 58.1063C81.9579 60.7571 84.7763 63.2373 88.5506 64.3602C89.824 64.739 89.7524 64.5308 91.9873 65.0085C95.5538 65.7709 102.234 67.2783 107.602 72.3303C108.765 73.4247 110.354 75.1453 111.842 77.6613C111.759 77.2632 111.664 76.9084 111.617 76.6649C111.219 74.6094 109.768 71.4763 102.357 67.6059Z" fill="#FF5E97"/>
<path d="M74.2021 57.063C78.3902 60.9699 82.1176 63.1952 84.667 64.486C91.5842 67.9883 94.6497 67.0516 101.522 71.1509C106.497 74.118 110.471 77.9372 110.286 78.3248C110.152 78.6046 107.887 77.0142 104.918 75.728C98.9561 73.1453 94.1382 73.5152 91.5322 73.4536C86.8755 73.3435 80.1133 71.6387 71.0878 64.4397L74.2021 57.063Z" fill="#E62769"/>
<path d="M75.6069 59.4584C79.3828 62.4917 82.7629 64.2369 85.0783 65.2543C91.3608 68.0147 94.1839 67.3404 100.416 70.5554C104.927 72.8825 108.509 75.8462 108.333 76.1393C108.206 76.351 106.156 75.1088 103.456 74.0895C98.0339 72.0427 93.6142 72.262 91.2277 72.1811C86.963 72.0366 80.7946 70.6487 72.6383 65.0423L75.6069 59.4584Z" fill="#C1B5FF"/>
<path d="M45.24 46.5587L44.8026 46.6238C44.9218 47.3273 45.052 48.0413 45.1956 48.7662C45.3196 49.3922 45.4519 50.025 45.5955 50.666C45.765 51.4227 45.9427 52.1623 46.127 52.8855C48.3487 51.2842 51.25 50.3148 54.4245 50.3148C54.5603 50.3148 54.6953 50.3172 54.83 50.3207C55.0425 49.851 55.2533 49.3725 55.4619 48.8855C55.7218 48.2787 55.9782 47.658 56.2303 47.0243L55.6549 46.8998C52.2322 46.1594 48.7038 46.0439 45.24 46.5587Z" fill="#DDE8FF"/>
<path d="M65.9748 33.0961C63.4774 32.003 60.5671 31.3755 57.4591 31.3755C51.7576 31.3755 46.7199 33.4857 43.6807 36.7125H61.6654L65.9748 33.0961Z" fill="#DDE8FF"/>
<path d="M58.9179 39.0181L61.1505 37.1446L61.6654 36.7125H43.6807C43.1778 37.2463 42.7295 37.8107 42.3421 38.4012C41.9778 38.9566 41.6665 39.5348 41.4147 40.1326L43.9307 39.5376C44.1001 41.7368 44.3769 44.1101 44.8027 46.6237L45.24 46.5587C48.7039 46.0438 52.2322 46.1594 55.6549 46.8998L56.2304 47.0242C56.3339 46.7641 56.4368 46.5024 56.5388 46.2377C57.5173 43.6965 58.2955 41.2746 58.9179 39.0181Z" fill="#B0BCD6"/>
<path d="M76.5626 62.1279C78.8851 64.1345 81.0024 65.3046 82.4892 65.9983C85.7958 67.5413 87.4252 67.4007 93.2537 69.264C95.7313 70.056 99.6303 71.422 99.5432 71.7435C99.4855 71.9561 97.7163 71.5959 93.4956 70.8968C86.3052 69.7059 86.3505 69.9082 84.8477 69.5059C82.4182 68.8554 78.9349 67.4256 75.1112 63.8817L76.5626 62.1279Z" fill="#D4CCFF"/>
<path d="M77.1787 63.2579C77.7684 63.7938 78.6455 64.533 79.7891 65.292C84.999 68.7492 90.2781 68.9904 90.2307 69.2923C90.1989 69.4955 87.7827 69.5507 85.1116 68.8855C80.7636 67.8027 77.8363 65.3332 76.3312 63.8342L77.1787 63.2579Z" fill="#EAE6FF"/>
<path d="M41.1516 64.0699C40.9809 65.0998 40.9915 65.9448 41.0356 66.5344C41.0925 67.2969 41.2521 67.9275 41.5322 69.1662C41.5341 69.1743 41.5359 69.1825 41.5377 69.1906C41.8305 70.4812 43.1374 71.2694 44.4189 70.9393C46.0964 70.5072 47.8884 69.9584 49.762 69.2587C50.7678 68.8831 51.7227 68.4912 52.6281 68.0916C52.9978 67.7442 53.3484 67.3409 53.6484 66.8761C54.6933 65.2572 54.6546 63.1616 53.7673 61.5562C52.6158 60.8067 50.9479 59.7912 48.7838 59.8928C47.1125 59.9713 45.7986 60.6855 44.0245 61.65C41.2072 63.1815 39.7781 64.7981 39.7603 64.7782C39.7539 64.7711 39.9188 64.5474 40.2182 64.1792C40.0791 64.2996 39.9374 64.4218 39.7902 64.5481C37.9074 66.1626 36.3104 67.4338 35.2435 68.2643L36.3846 71.8817C36.4395 70.2874 36.4869 69.0343 36.4869 69.0343L41.1516 64.0699Z" fill="#57626F"/>
<path d="M49.3738 69.9157C49.7476 69.8565 51.3093 69.3306 52.6281 68.0915C51.7227 68.4912 50.7678 68.8831 49.7621 69.2587C47.8884 69.9584 46.0964 70.5071 44.4189 70.9393C43.1374 71.2694 41.8305 70.4812 41.5378 69.1906C41.5359 69.1825 41.5341 69.1743 41.5322 69.1662C41.2521 67.9275 41.0926 67.2969 41.0356 66.5344C40.9915 65.9448 40.981 65.0998 41.1516 64.0699L36.4869 69.0343C36.4869 69.0343 36.4396 70.2874 36.3846 71.8817L37.1613 74.3437L49.3738 69.9157Z" fill="#4A535E"/>
<path d="M44.0245 61.65C45.7987 60.6855 47.1125 59.9713 48.7838 59.8928C50.948 59.7911 52.6159 60.8067 53.7673 61.5561C53.3824 60.8596 52.8385 60.2548 52.1525 59.8222C50.3046 58.6566 47.8467 59.2365 47.0404 59.4268C44.7182 59.9747 43.6949 61.1712 40.2182 64.1792C39.9188 64.5474 39.754 64.7711 39.7603 64.7781C39.7782 64.7981 41.2072 63.1815 44.0245 61.65Z" fill="#6C798A"/>
<path d="M50.6674 66.2087C52.4444 65.092 53.1956 63.0898 52.3452 61.7366C51.4949 60.3834 49.365 60.1917 47.588 61.3084C45.811 62.4251 45.0598 64.4273 45.9102 65.7805C46.7606 67.1337 48.8905 67.3254 50.6674 66.2087Z" fill="#6C798A"/>
<path d="M50.1533 64.7575C51.2783 64.0505 51.7538 62.783 51.2155 61.9264C50.6771 61.0697 49.3288 60.9484 48.2039 61.6553C47.0789 62.3622 46.6034 63.6298 47.1417 64.4864C47.6801 65.343 49.0284 65.4644 50.1533 64.7575Z" fill="#8696AB"/>
<path d="M35.0262 73.2547C36.3658 73.5409 37.5613 72.4231 38.0286 71.9862C38.8864 71.1842 39.3636 70.2144 39.6286 69.3256C39.6347 69.1434 39.6418 68.9413 39.65 68.7181C39.6728 68.0929 39.6968 67.8572 39.722 67.5238C39.7865 66.6719 39.8383 66.3106 40.0718 65.9021C40.4966 65.1586 41.0305 65.1181 41.2249 64.5903C41.3197 64.4273 41.3826 64.2423 41.401 64.0421C41.4687 63.3065 40.9272 62.6553 40.1916 62.5875C39.5457 62.5281 39.0125 62.9545 38.7872 63.5371C38.7525 63.6269 38.7702 63.8281 38.6277 64.0309C38.5977 64.1657 38.549 64.3074 38.472 64.4485C38.1386 65.0593 37.3722 65.4886 37.0465 65.2808C36.8615 65.1629 36.8596 64.8655 36.8576 64.5408C36.8566 64.3859 36.8685 64.1707 36.9238 63.9137C36.9445 63.6169 37.0153 63.2907 37.1291 63.0251C37.2587 62.7226 37.3736 62.4885 37.4717 62.2945C37.7372 62.0499 37.9175 61.7111 37.9532 61.3234C38.0297 60.4923 37.418 59.7565 36.5868 59.68C35.7557 59.6035 35.02 60.2152 34.9435 61.0464C34.9239 61.259 34.9499 61.4651 35.0126 61.6558C35.0238 62.0216 35.1368 62.3069 35.1978 62.7196C35.306 63.0536 35.3993 63.4655 35.4192 63.9427C35.4356 64.3375 35.4583 64.8807 35.2269 64.9849C35.0444 65.0671 34.7617 64.8503 34.5163 64.6017C34.3548 64.4807 34.1825 64.2805 34.0342 64.0339C34.0333 64.0327 34.0321 64.0311 34.0314 64.0301L34.0317 64.0296C33.8876 63.7891 33.7668 63.5065 33.704 63.211C33.653 62.9714 33.6356 62.7688 33.6303 62.5889C33.6585 62.4976 33.6782 62.4022 33.6873 62.3032C33.7163 61.9877 33.6365 61.688 33.4806 61.4386C33.4784 61.4347 33.4769 61.4309 33.4746 61.427C33.2358 61.0055 32.7633 60.7154 32.2623 60.7836C31.5662 60.8017 30.978 61.3373 30.9126 62.0478C30.8571 62.6499 31.1943 63.1963 31.7127 63.4376C31.9566 63.6682 32.2532 63.8589 32.5054 64.2534C33.0798 65.1522 32.7321 66.0291 32.5285 67.8139C32.4481 68.5192 32.3686 69.1155 32.3164 69.6404C32.4418 70.1515 32.6327 70.6761 32.9131 71.1948C33.2989 71.9086 33.8961 73.0133 35.0262 73.2547Z" fill="#C1B5FF"/>
<path d="M32.5687 72.2781C32.6199 72.3928 33.5398 74.381 35.2786 74.5991C37.4538 74.8719 39.516 72.1997 39.5875 70.6187C39.5923 70.5128 39.6022 70.1018 39.6286 69.3256C39.3636 70.2144 38.8864 71.1842 38.0286 71.9863C37.5613 72.4232 36.3658 73.5409 35.0262 73.2548C33.8961 73.0134 33.299 71.9087 32.9131 71.1948C32.6328 70.6762 32.4418 70.1515 32.3164 69.6405C32.2095 70.7156 32.2173 71.49 32.5687 72.2781Z" fill="#A594FF"/>
<path d="M34.868 64.7216C34.7717 64.7474 34.6477 64.7002 34.5162 64.6017C34.7617 64.8504 35.0444 65.0672 35.2269 64.985C35.4583 64.8807 35.4356 64.3375 35.4191 63.9428C35.3992 63.4656 35.306 63.0537 35.1978 62.7197C35.2329 62.9578 35.2509 63.238 35.2216 63.6014C35.188 64.0191 35.1372 64.6492 34.868 64.7216Z" fill="#A594FF"/>
<path d="M34.0342 64.0339C34.0333 64.0325 34.0325 64.0311 34.0316 64.0297L34.0314 64.0301C34.0321 64.0311 34.0333 64.0328 34.0342 64.0339Z" fill="#A594FF"/>
<path d="M36.8576 64.5408C36.8596 64.8656 36.8615 65.1629 37.0464 65.2809C37.3722 65.4886 38.1386 65.0594 38.472 64.4486C38.549 64.3075 38.5977 64.1657 38.6277 64.0309C38.6147 64.0494 38.6008 64.0679 38.585 64.0863C37.6106 64.8663 37.3249 64.8268 37.1226 64.7286C36.9569 64.6481 36.8964 64.3067 36.9238 63.9137C36.8685 64.1708 36.8566 64.386 36.8576 64.5408Z" fill="#A594FF"/>
<path d="M40.0996 64.7664C40.6063 64.7664 41.017 64.3556 41.017 63.8489C41.017 63.3422 40.6063 62.9315 40.0996 62.9315C39.5929 62.9315 39.1821 63.3422 39.1821 63.8489C39.1821 64.3556 39.5929 64.7664 40.0996 64.7664Z" fill="#D4CCFF"/>
<path d="M40.0373 64.2418C40.3324 64.2418 40.5717 64.0025 40.5717 63.7074C40.5717 63.4122 40.3324 63.1729 40.0373 63.1729C39.7421 63.1729 39.5028 63.4122 39.5028 63.7074C39.5028 64.0025 39.7421 64.2418 40.0373 64.2418Z" fill="#EAE6FF"/>
<path d="M36.4323 62.2966C37.048 62.2966 37.5472 61.7974 37.5472 61.1817C37.5472 60.5659 37.048 60.0668 36.4323 60.0668C35.8165 60.0668 35.3174 60.5659 35.3174 61.1817C35.3174 61.7974 35.8165 62.2966 36.4323 62.2966Z" fill="#D4CCFF"/>
<path d="M36.2723 61.6706C36.6619 61.6706 36.9778 61.3547 36.9778 60.9651C36.9778 60.5755 36.6619 60.2597 36.2723 60.2597C35.8827 60.2597 35.5669 60.5755 35.5669 60.9651C35.5669 61.3547 35.8827 61.6706 36.2723 61.6706Z" fill="#EAE6FF"/>
<path d="M33.2909 62.2091C33.3364 61.7145 32.9136 61.2713 32.3466 61.2191C31.7795 61.1669 31.283 61.5255 31.2374 62.0201C31.1919 62.5146 31.6147 62.9578 32.1818 63.01C32.7488 63.0622 33.2454 62.7036 33.2909 62.2091Z" fill="#D4CCFF"/>
<path d="M32.6723 61.9956C32.6997 61.698 32.4454 61.4313 32.1042 61.3999C31.763 61.3685 31.4642 61.5843 31.4368 61.8818C31.4094 62.1794 31.6638 62.4461 32.005 62.4775C32.3462 62.5089 32.645 62.2931 32.6723 61.9956Z" fill="#EAE6FF"/>
<path d="M37.6991 69.568C37.8577 67.8446 37.1494 66.3705 36.117 66.2755C35.0846 66.1805 34.1191 67.5005 33.9604 69.2239C33.8018 70.9473 34.5102 72.4214 35.5426 72.5164C36.575 72.6114 37.5405 71.2914 37.6991 69.568Z" fill="#D4CCFF"/>
<path d="M36.9664 68.8716C37.0644 67.8062 36.6265 66.8949 35.9883 66.8362C35.35 66.7775 34.7532 67.5935 34.6551 68.6589C34.557 69.7243 34.9949 70.6356 35.6332 70.6943C36.2714 70.7531 36.8683 69.937 36.9664 68.8716Z" fill="#EAE6FF"/>
<path d="M17.3766 14.6413C18.0665 14.1512 18.628 14.9106 19.4777 14.6413C20.4456 14.3344 20.2723 13.173 21.414 12.399C22.5668 11.6176 23.8883 12.0255 24.0095 12.0651C25.5406 12.5651 25.7974 14.1414 26.4402 14.0688C27.197 13.9832 28.0834 11.6578 28.3502 9.32922L29.3775 17.2747C27.7609 19.7663 26.7257 20.12 26.0761 19.9733C25.1281 19.7593 24.7469 18.4222 23.9398 18.579C23.2009 18.7226 23.2184 19.9017 22.2308 20.2882C21.5456 20.5564 21.3487 19.9758 20.4241 20.2204C19.7092 20.4095 19.3712 20.7861 19.0058 21.035C18.779 21.041 18.5354 21.0155 18.283 20.9386C18.1965 20.9122 18.1304 20.8864 17.2942 20.4138C15.7951 19.5666 15.6683 19.4579 15.3991 19.5074C14.7035 19.6351 14.616 20.5316 14.0807 20.5092C13.5326 20.4863 13.26 19.5312 12.9682 19.2198C12.9571 18.4889 13.3076 17.882 13.375 17.7695C13.8856 16.9168 14.4591 17.1435 15.3153 16.4247C15.6669 16.3826 16.2119 16.0737 16.5938 15.6908C17.0748 15.2087 16.9957 14.9119 17.3766 14.6413Z" fill="#FF2D77"/>
<path d="M17.105 13.8564C18.1546 13.2114 18.8925 14.2433 19.8614 13.5866C20.7848 12.9608 20.4077 11.8252 21.3762 11.1128C22.2761 10.451 22.8501 11.2486 23.9397 10.6181C25.0089 9.99939 24.9296 8.95765 25.8818 8.50413C26.396 8.25923 27.1534 8.21327 28.29 8.86395L28.3501 9.32926C28.0834 11.6578 27.197 13.9833 26.4402 14.0688C25.7974 14.1415 25.5406 12.5651 24.0095 12.0651C23.8883 12.0255 22.5667 11.6176 21.414 12.3991C20.2723 13.173 20.4456 14.3345 19.4777 14.6413C18.628 14.9107 18.0665 14.1512 17.3766 14.6413C16.9956 14.9119 17.0748 15.2088 16.5938 15.6909C16.2118 16.0737 15.6668 16.3826 15.3153 16.4248C15.3667 16.3816 15.4189 16.3356 15.4724 16.2852C16.5632 15.2573 16.2151 14.4034 17.105 13.8564Z" fill="#E62769"/>
<path d="M14.0807 20.5092C14.616 20.5316 14.7035 19.6351 15.3991 19.5074C15.6683 19.458 15.7951 19.5666 17.2942 20.4138C18.1304 20.8864 18.1965 20.9123 18.283 20.9386C18.5354 21.0155 18.779 21.0411 19.0058 21.035C18.7952 21.1785 18.5754 21.2797 18.269 21.2777C17.2862 21.2714 17.0583 20.2165 16.1327 20.3332C15.4134 20.4238 15.3206 21.0899 14.6179 21.0978C14.019 21.1045 13.3746 20.6287 13.1031 19.9284C13.0098 19.6876 12.9716 19.4477 12.9681 19.2198C13.26 19.5312 13.5326 20.4863 14.0807 20.5092Z" fill="#FF82AD"/>
<path d="M26.1713 18.1783C24.7556 17.8181 22.5909 17.4978 20.0133 18.023C18.6997 18.2906 17.5522 18.7221 16.5927 19.1855C16.2068 19.3719 15.8866 18.7564 16.1634 18.3603C16.5577 17.7961 17.0019 17.2374 17.5023 16.7022C21.9371 11.9592 27.5312 12.5422 29.2802 12.8176L26.1713 18.1783Z" fill="#E62769"/>
<path d="M25.7772 17.7173C24.5208 17.4325 22.5997 17.1791 20.3122 17.5944C19.1464 17.8061 18.128 18.1474 17.2765 18.5138C16.9339 18.6613 16.6498 18.1745 16.8955 17.8612C17.2454 17.415 17.6396 16.9732 18.0837 16.5499C22.0194 12.799 26.9841 13.2601 28.5362 13.4779L25.7772 17.7173Z" fill="#C1B5FF"/>
<path d="M25.4881 17.0953C24.7846 16.7948 23.7567 16.4591 22.4901 16.3905C21.3904 16.331 20.443 16.4908 19.7112 16.6918C19.569 16.7309 19.486 16.5112 19.6076 16.4173C20.0455 16.0789 20.5663 15.74 21.1725 15.4508C23.2776 14.4467 25.2011 14.6209 26.1869 14.7983L25.4881 17.0953Z" fill="#D4CCFF"/>
<path d="M25.3337 16.2011C24.7312 16.0553 23.9647 15.9342 23.0761 15.9468C22.2942 15.9579 21.604 16.0697 21.0295 16.2117C20.9508 16.2312 20.9139 16.1035 20.9867 16.0637C21.359 15.8596 21.7934 15.6615 22.2871 15.5031C23.5318 15.1037 24.616 15.1288 25.3302 15.2159L25.3337 16.2011Z" fill="#EAE6FF"/>
<path d="M13.3562 29.987C13.7693 29.2329 13.3717 28.6157 13.8078 27.8951C14.2975 27.0858 15.0355 27.4738 15.5732 26.659C16.1177 25.8339 15.5813 25.1019 16.0658 24.5197C16.711 23.7444 17.9014 24.754 18.8576 23.9016C19.3633 23.4508 19.2257 22.9944 19.6787 22.3803C20.5149 21.2468 22.0412 21.3122 22.799 21.3343C24.9229 21.3965 26.455 22.7264 27.0688 23.3311L26.4905 17.4965L31.2354 26.1892C28.7154 28.1806 27.1158 28.3926 26.0931 28.1585C25.7325 28.076 25.1376 27.8679 24.4735 28.1585C23.5574 28.5594 23.5875 29.4375 22.6109 29.9871C21.6934 30.5035 21.3165 29.9256 20.6674 30.456C19.9434 31.0476 20.1254 32.0007 19.7136 32.6285C19.571 32.7309 19.4109 32.8069 19.2314 32.8377C18.8465 32.9039 18.7547 32.6975 18.2288 32.741C17.5198 32.7996 16.9997 33.2316 16.7807 33.4182C15.9174 34.1538 16.1051 34.754 15.4718 35.0628C14.8006 35.3903 14.4661 34.7761 13.801 35.1273C13.1288 35.4823 13.1641 36.2713 12.5756 36.4173C12.3052 36.4843 12.0662 36.3752 11.8752 36.2534C11.7991 36.0038 11.7784 35.7423 11.8 35.5198C11.851 34.9928 12.112 34.9311 12.2454 34.4414C12.5091 33.4733 11.6933 32.9633 11.8 31.9564C11.8702 31.293 12.2586 31.1908 12.6473 30.6855C12.9221 30.5315 13.179 30.3102 13.3562 29.987Z" fill="#FF2D77"/>
<path d="M13.5411 26.9863C14.0671 26.3622 14.7924 26.6913 15.1202 26.0017C15.3269 25.5669 15.0831 25.3427 15.2012 24.6888C15.3631 23.7927 16.0625 22.8765 16.8613 22.6727C17.7027 22.458 18.1215 23.1697 18.6429 22.8133C19.1229 22.4853 18.8463 21.8285 19.4122 21.0316C19.819 20.4588 20.3645 20.2314 21.0318 19.9532C22.0596 19.5248 22.1806 19.8247 22.611 19.4843C23.4868 18.7917 23.0928 17.4653 23.9067 16.6711C24.2241 16.3614 24.7772 16.0818 25.8097 16.2491L26.4906 17.4964L27.0688 23.3311C26.455 22.7264 24.923 21.3965 22.799 21.3343C22.0413 21.3122 20.5149 21.2467 19.6788 22.3803C19.2257 22.9944 19.3634 23.4508 18.8577 23.9016C17.9014 24.754 16.711 23.7444 16.0659 24.5196C15.5813 25.1019 16.1178 25.8339 15.5732 26.659C15.0355 27.4737 14.2975 27.0858 13.8078 27.8951C13.3718 28.6157 13.7694 29.2329 13.3562 29.987C13.1791 30.3102 12.9222 30.5315 12.6473 30.6855C12.7734 30.5216 12.8995 30.3156 13.0147 30.034C13.5921 28.6235 12.9127 27.7319 13.5411 26.9863Z" fill="#E62769"/>
<path d="M12.5757 36.4173C13.1641 36.2713 13.1288 35.4823 13.801 35.1273C14.4661 34.7761 14.8006 35.3903 15.4719 35.0628C16.1051 34.754 15.9174 34.1538 16.7807 33.4182C16.9997 33.2316 17.5198 32.7996 18.2288 32.741C18.7547 32.6975 18.8466 32.9039 19.2314 32.8377C19.4109 32.8069 19.571 32.7309 19.7136 32.6285C19.637 32.7455 19.5397 32.8511 19.4122 32.941C18.7049 33.4396 18.1403 32.698 17.4282 33.2224C16.6632 33.7856 17.0048 34.8694 16.2539 35.3323C15.5839 35.7453 14.8953 35.1393 14.4724 35.6605C14.2183 35.9735 14.4081 36.2644 14.1484 36.6451C13.7808 37.1843 12.8312 37.4357 12.2454 36.8796C12.0654 36.7087 11.9462 36.4862 11.8752 36.2534C12.0663 36.3752 12.3052 36.4843 12.5757 36.4173Z" fill="#FF82AD"/>
<path d="M31.1514 25.122C28.8666 25.1317 25.1667 25.5099 20.9901 27.6481C18.1315 29.1116 15.8841 30.9723 14.2301 32.6266C13.8622 32.9945 13.3708 32.4288 13.6166 31.9199C13.9595 31.2103 14.3398 30.4998 14.7622 29.7954C20.0059 21.0496 28.2193 19.0854 31.4136 18.554L31.1514 25.122Z" fill="#E62769"/>
<path d="M28.4832 25.9504C26.634 25.9575 23.6395 26.2334 20.2591 27.7936C17.9455 28.8614 16.1266 30.2191 14.7879 31.4261C14.4901 31.6946 14.0924 31.2819 14.2914 30.9105C14.5688 30.3928 14.8767 29.8743 15.2185 29.3603C19.4626 22.9789 26.1101 21.5457 28.6954 21.158L28.4832 25.9504Z" fill="#C1B5FF"/>
<path d="M27.6228 25.1247C26.4455 25.0007 24.7187 24.9805 22.721 25.5473C21.0248 26.0286 19.6437 26.7883 18.5972 27.5155C18.4237 27.6361 18.2484 27.3636 18.3977 27.2054C18.889 26.6843 19.4501 26.1562 20.0875 25.6492C22.9477 23.3746 25.8236 22.7343 27.4924 22.5281L27.6228 25.1247Z" fill="#D4CCFF"/>
<path d="M27.3375 24.6961C26.4143 24.5387 24.8944 24.4134 23.1396 24.9103C22.5897 25.066 22.0997 25.2594 21.6721 25.4621C21.5528 25.5187 21.4528 25.3524 21.5558 25.2686C21.8076 25.0634 22.0915 24.86 22.4096 24.6694C24.2481 23.568 26.0916 23.5809 26.9725 23.6521L27.3375 24.6961Z" fill="#EAE6FF"/>
<path d="M35.3591 32.7092C35.2508 33.084 34.9924 33.7988 34.3908 34.3705C33.5588 35.1611 32.5787 35.1954 32.2747 35.2011C31.0914 35.2234 30.7383 34.5699 30.1228 34.9104C29.9274 35.0185 29.8167 35.1654 29.7332 35.3348C29.4523 35.4789 29.0574 36.2543 28.0954 36.6128C27.4137 36.8668 27.2623 36.6074 26.8486 36.8892C26.0474 37.435 26.4506 38.5199 25.6548 39.4083C24.9558 40.1887 24.3408 39.6912 23.6916 40.545C23.1818 41.2154 23.4536 41.6633 22.8957 42.3575C22.2918 43.109 21.4359 43.2529 21.2509 43.2791C20.6884 43.3589 20.2309 43.2153 19.9031 43.1124C19.7931 42.9803 19.6938 42.823 19.6143 42.6352C19.3246 41.9505 19.4152 41.14 19.7219 40.6002C20.1148 39.9085 20.6224 40.0835 20.9054 39.4788C21.1941 38.8622 20.784 38.4291 20.7259 37.5893C20.8641 37.275 21.0383 36.9148 21.2549 36.5302C21.7969 35.568 22.0594 35.4207 22.3766 34.7984C23.083 33.412 22.4248 32.8778 22.9748 31.7677C23.6417 30.4216 24.7533 30.9168 26.1154 29.1267C26.6672 28.4015 26.6382 28.1186 27.0127 27.9144C28.0524 27.3477 29.6623 28.7714 30.9011 30.1225L27.3987 24.1909C27.6996 24.0198 28.0163 23.8859 28.3295 23.78L35.3591 32.7092Z" fill="#FF2D77"/>
<path d="M30.9011 30.1226C29.6623 28.7715 28.0524 27.3478 27.0128 27.9145C26.6382 28.1187 26.6672 28.4016 26.1154 29.1268C24.7534 30.9169 23.6417 30.4216 22.9748 31.7678C22.4249 32.8779 23.0831 33.4121 22.3766 34.7984C22.0595 35.4208 21.7969 35.5681 21.255 36.5302C21.0383 36.9149 20.8641 37.2751 20.726 37.5894C20.7175 37.467 20.7164 37.3361 20.7262 37.1947C20.8143 35.9143 21.6334 35.92 22.0532 34.246C22.3093 33.2244 22.0506 33.0377 22.376 31.7541C22.5359 31.1231 22.6929 30.5036 23.0933 29.8852C23.9152 28.6155 24.7428 28.926 25.3886 27.7671C25.8481 26.9426 25.5607 26.5494 25.9625 25.6905C26.2851 25.0008 26.8117 24.5248 27.3988 24.191L30.9011 30.1226Z" fill="#E62769"/>
<path d="M21.2509 43.2792C21.4359 43.2529 22.2918 43.109 22.8957 42.3576C23.4536 41.6634 23.1818 41.2155 23.6916 40.5451C24.3408 39.6912 24.9558 40.1887 25.6548 39.4084C26.4506 38.5199 26.0475 37.435 26.8486 36.8893C27.2623 36.6075 27.4137 36.8669 28.0955 36.6128C29.0574 36.2544 29.4523 35.479 29.7332 35.3349C29.5548 35.6968 29.5005 36.1614 29.011 36.5717C28.292 37.1742 27.812 36.6717 27.146 37.2362C26.4008 37.8678 26.8024 38.6661 26.07 39.4789C25.281 40.3547 24.4817 39.7977 23.8464 40.6833C23.3551 41.3681 23.7276 41.8482 23.2008 42.6768C23.1438 42.7665 22.3711 43.9413 21.1924 43.7981C21.0866 43.7853 20.3903 43.6981 19.9031 43.1125C20.2309 43.2153 20.6884 43.3589 21.2509 43.2792Z" fill="#FF82AD"/>
<path d="M33.9152 32.1299C32.5264 32.1842 30.462 32.4632 28.1678 33.5522C26.9994 34.1068 24.0693 35.5292 21.7714 38.9464C21.7674 38.9523 21.7635 38.9582 21.7595 38.9641C21.5625 39.258 21.1592 39.0215 21.2496 38.6645C21.3741 38.1723 21.5297 37.6395 21.7251 37.079C22.021 36.2299 23.0699 33.4189 25.5026 30.788C27.0563 29.1078 28.6465 28.0718 29.8827 27.4335L33.9152 32.1299Z" fill="#E62769"/>
<path d="M34.0543 32.0945C32.747 31.9965 30.5589 32.0396 28.1118 33.139C25.7222 34.2124 24.0108 35.8775 22.8683 37.3208C22.5303 37.7479 21.9382 37.2974 22.1382 36.7664C22.3276 36.2635 22.5484 35.7484 22.8059 35.228C25.329 30.1289 29.5933 28.1276 31.1892 27.4864L34.0543 32.0945Z" fill="#C1B5FF"/>
<path d="M32.9574 31.638C32.0744 31.4937 30.8419 31.4166 29.4172 31.7253C27.4758 32.1459 25.9968 33.1053 25.0264 33.9084C24.8559 34.0495 24.6425 33.813 24.7578 33.6104C25.0789 33.0461 25.4936 32.4366 26.0276 31.8446C27.9355 29.7299 30.1513 29.1865 31.112 29.0214L32.9574 31.638Z" fill="#D4CCFF"/>
<path d="M31.0888 31.1119C30.5144 31.0954 29.6793 31.146 28.7226 31.4742C28.243 31.6388 27.823 31.8422 27.465 32.0501C27.3552 32.1139 27.2593 31.9398 27.3555 31.8514C27.5359 31.6858 27.737 31.52 27.96 31.361C28.9306 30.6691 29.8604 30.4324 30.4435 30.342L31.0888 31.1119Z" fill="#EAE6FF"/>
<path d="M90.3543 12.8142C89.3512 12.4193 88.6763 13.2948 87.4818 13.1537C86.121 12.9931 86.2161 11.7649 84.5607 11.1496C82.8893 10.5284 81.1324 11.1634 80.9715 11.2239C78.9394 11.988 78.7808 13.6584 77.8931 13.6872C76.848 13.721 75.3522 11.4613 74.7031 9.09821L74.2689 17.4745C76.7833 19.7879 78.2419 19.9862 79.1121 19.7297C80.3819 19.3553 80.7397 17.9121 81.8624 17.9437C82.8901 17.9727 83.0102 19.1939 84.4076 19.4337C85.3771 19.6001 85.5753 18.9684 86.8693 19.0717C87.8697 19.1516 88.3778 19.4861 88.9077 19.6843C89.2185 19.6539 89.5485 19.5882 89.8842 19.4679C89.9992 19.4267 90.0864 19.3893 91.1719 18.7659C93.118 17.6482 93.278 17.5155 93.6521 17.523C94.6187 17.5426 94.8478 18.4549 95.5768 18.3453C96.3234 18.233 96.5794 17.202 96.9404 16.8331C96.8663 16.076 96.3129 15.5055 96.2071 15.4001C95.4049 14.6016 94.6485 14.9285 93.3901 14.3241C92.9044 14.3373 92.1216 14.1062 91.5526 13.7723C90.8361 13.3519 90.9081 13.0323 90.3543 12.8142Z" fill="#FF2D77"/>
<path d="M90.6297 11.9594C89.116 11.4624 88.2332 12.6479 86.8283 12.1259C85.4894 11.6284 85.8664 10.394 84.4552 9.81443C83.1441 9.27593 82.4568 10.1929 80.8901 9.71739C79.353 9.25084 79.3341 8.16155 77.9769 7.84677C77.244 7.67679 76.2029 7.75168 74.7286 8.60769L74.7031 9.09823C75.3522 11.4613 76.848 13.7211 77.8931 13.6872C78.7808 13.6584 78.9393 11.988 80.9715 11.2239C81.1324 11.1635 82.8893 10.5284 84.5607 11.1497C86.2161 11.7649 86.121 12.9931 87.4818 13.1538C88.6763 13.2948 89.3512 12.4193 90.3543 12.8143C90.9081 13.0323 90.8361 13.3519 91.5526 13.7723C92.1216 14.1062 92.9044 14.3373 93.3901 14.3241C93.3146 14.2879 93.2376 14.2487 93.1583 14.2053C91.5415 13.3194 91.9132 12.3807 90.6297 11.9594Z" fill="#E62769"/>
<path d="M95.5768 18.3453C94.8477 18.4549 94.6186 17.5426 93.6521 17.5231C93.278 17.5155 93.1179 17.6482 91.1719 18.7659C90.0864 19.3894 89.9992 19.4267 89.8842 19.4679C89.5484 19.5882 89.2185 19.654 88.9077 19.6843C89.2132 19.7986 89.526 19.8676 89.9447 19.8161C91.2876 19.6508 91.4703 18.5239 92.7499 18.4949C93.7444 18.4723 93.9526 19.1456 94.9143 19.0402C95.7338 18.9504 96.5568 18.3546 96.8424 17.5871C96.9406 17.3231 96.9635 17.0692 96.9404 16.8331C96.5794 17.202 96.3234 18.233 95.5768 18.3453Z" fill="#FF82AD"/>
<path d="M78.7628 17.8902C80.6542 17.2892 83.5746 16.6084 87.1626 16.7346C88.9911 16.7989 90.6127 17.0595 91.981 17.3833C92.5314 17.5135 92.894 16.8257 92.4672 16.4611C91.8592 15.9418 91.1837 15.4363 90.4342 14.9641C83.792 10.7796 76.2152 12.2859 73.8578 12.8531L78.7628 17.8902Z" fill="#E62769"/>
<path d="M79.2451 17.3501C80.9279 16.8528 83.5235 16.2806 86.7015 16.3401C88.3212 16.3705 89.7552 16.5586 90.964 16.7997C91.4503 16.8967 91.7794 16.3477 91.4052 16.0637C90.8723 15.6592 90.2795 15.2664 89.6206 14.9007C83.7818 11.6607 77.0507 12.9394 74.9553 13.4152L79.2451 17.3501Z" fill="#C1B5FF"/>
<path d="M79.5645 16.6607C80.4895 16.2365 81.8538 15.7236 83.5771 15.448C85.0733 15.2088 86.3879 15.2209 87.413 15.3104C87.6122 15.3278 87.6988 15.0874 87.5211 15.01C86.8811 14.7311 86.1277 14.465 85.2636 14.2641C82.263 13.5666 79.6546 14.0574 78.3286 14.4L79.5645 16.6607Z" fill="#D4CCFF"/>
<path d="M79.6663 15.7116C80.4722 15.4637 81.5052 15.2147 82.7217 15.0841C83.7919 14.9692 84.7492 14.9733 85.5519 15.0272C85.6619 15.0346 85.6968 14.8967 85.5924 14.8673C85.0585 14.7166 84.4404 14.582 83.7461 14.4981C81.9957 14.2865 80.5165 14.4877 79.5507 14.6931L79.6663 15.7116Z" fill="#EAE6FF"/>
<path d="M97.7248 28.0218C97.0678 27.3094 97.536 26.6074 96.8519 25.9332C96.0835 25.1761 95.122 25.6962 94.2874 24.9412C93.4421 24.1766 94.0861 23.3335 93.3526 22.8101C92.3759 22.1133 90.8718 23.3488 89.4603 22.6226C88.7139 22.2385 88.8463 21.7446 88.1519 21.1832C86.8703 20.147 84.7916 20.4612 83.7584 20.6065C80.8622 21.0139 78.9302 22.6357 78.1648 23.3598L78.2428 17.2372L72.8175 26.9864C76.5059 28.637 78.7187 28.5976 80.0882 28.1905C80.5712 28.0469 81.3591 27.7358 82.3025 27.9288C83.6039 28.195 83.6699 29.1072 85.0722 29.5174C86.3896 29.9027 86.8343 29.2447 87.7866 29.6879C88.8486 30.1822 88.7162 31.1965 89.3558 31.7787C89.5633 31.8614 89.7915 31.914 90.0407 31.9169C90.5749 31.9231 90.6752 31.695 91.3995 31.655C92.376 31.601 93.1398 31.9634 93.462 32.1208C94.7321 32.7414 94.5488 33.3919 95.4522 33.6088C96.4099 33.8386 96.7922 33.1499 97.7445 33.4054C98.7068 33.6636 98.7549 34.4846 99.5772 34.5403C99.9551 34.566 100.268 34.4146 100.515 34.2579C100.588 33.9876 100.585 33.7141 100.528 33.4877C100.394 32.9514 100.03 32.9297 99.7874 32.4453C99.3086 31.4875 100.362 30.8287 100.093 29.8055C99.9157 29.1313 99.3723 29.0885 98.7792 28.6291C98.3847 28.5144 98.0064 28.3272 97.7248 28.0218Z" fill="#FF2D77"/>
<path d="M97.1055 24.951C96.3101 24.3912 95.3587 24.8484 94.8263 24.1887C94.4907 23.7729 94.7966 23.5018 94.5553 22.8452C94.2246 21.9454 93.1564 21.1116 92.0395 21.0301C90.863 20.9442 90.3773 21.7473 89.621 21.4633C88.9246 21.2018 89.2226 20.4785 88.3516 19.7465C87.7255 19.2203 86.952 19.0735 86.0056 18.8938C84.5482 18.6172 84.4195 18.9467 83.7895 18.6645C82.5075 18.0903 82.8842 16.6559 81.6745 15.9668C81.2028 15.6981 80.4124 15.4986 79.0212 15.8383L78.2427 17.2372L78.1648 23.3598C78.9301 22.6357 80.8622 21.0139 83.7584 20.6065C84.7916 20.4612 86.8703 20.147 88.1519 21.1832C88.8463 21.7446 88.7138 22.2385 89.4603 22.6225C90.8717 23.3488 92.3759 22.1133 93.3525 22.8101C94.0861 23.3335 93.4421 24.1765 94.2873 24.9412C95.1219 25.6962 96.0835 25.1761 96.8518 25.9332C97.5359 26.6074 97.0678 27.3094 97.7247 28.0218C98.0063 28.3272 98.3846 28.5144 98.7791 28.6291C98.5868 28.4801 98.3893 28.2876 98.1973 28.0153C97.2357 26.6511 98.0556 25.6199 97.1055 24.951Z" fill="#E62769"/>
<path d="M99.5772 34.5403C98.7549 34.4846 98.7068 33.6636 97.7445 33.4054C96.7922 33.1499 96.4099 33.8386 95.4522 33.6087C94.5488 33.3919 94.7321 32.7414 93.462 32.1208C93.1398 31.9633 92.376 31.601 91.3995 31.655C90.6753 31.695 90.5749 31.9231 90.0407 31.9169C89.7915 31.914 89.5634 31.8614 89.3558 31.7787C89.4749 31.8871 89.6208 31.9806 89.8061 32.0529C90.8339 32.4538 91.5153 31.5962 92.5529 32.023C93.6675 32.4815 93.3328 33.6565 94.4159 34.0135C95.3824 34.3321 96.2498 33.5946 96.8917 34.0648C97.2772 34.3472 97.0533 34.6784 97.4548 35.0299C98.0233 35.5277 99.3522 35.6341 100.085 34.9647C100.31 34.7591 100.446 34.5099 100.515 34.2579C100.268 34.4145 99.9551 34.566 99.5772 34.5403Z" fill="#FF82AD"/>
<path d="M72.8022 25.87C75.927 25.5109 81.0315 25.3039 87.0027 26.8385C91.0895 27.8889 94.3892 29.4485 96.8526 30.8907C97.4005 31.2114 98.0032 30.5475 97.6049 30.0613C97.0496 29.3834 96.4428 28.7107 95.7793 28.051C87.5423 19.861 76.0736 19.1585 71.6416 19.1254L72.8022 25.87Z" fill="#E62769"/>
<path d="M76.5511 26.2949C79.08 26.0035 83.2077 25.8047 88.0197 26.8707C91.3131 27.6003 93.9656 28.7094 95.9432 29.7404C96.3831 29.9697 96.8764 29.4789 96.559 29.1273C96.1165 28.6371 95.6322 28.1511 95.1022 27.6753C88.5206 21.7669 79.2575 21.36 75.6757 21.3771L76.5511 26.2949Z" fill="#C1B5FF"/>
<path d="M77.6267 25.3026C79.221 24.9843 81.5793 24.6844 84.3798 24.9474C86.7575 25.1706 88.7384 25.7325 90.2579 26.3148C90.5099 26.4113 90.7162 26.1015 90.4928 25.9621C89.7575 25.503 88.9259 25.048 87.9925 24.6271C83.8045 22.7388 79.7944 22.5418 77.4878 22.5984L77.6267 25.3026Z" fill="#D4CCFF"/>
<path d="M77.9644 24.8137C79.2072 24.5019 81.2699 24.1269 83.7295 24.3568C84.5005 24.4288 85.194 24.5494 85.8033 24.6898C85.9733 24.729 86.0897 24.5411 85.9387 24.4711C85.5693 24.2998 85.1564 24.1354 84.6982 23.9898C82.0503 23.1488 79.5314 23.46 78.3359 23.676L77.9644 24.8137Z" fill="#EAE6FF"/>
<path d="M67.9762 34.3901C68.1701 34.7599 68.6107 35.4566 69.503 35.9502C70.7369 36.6328 72.081 36.5098 72.4973 36.4666C74.1178 36.2984 74.5207 35.5661 75.4038 35.8185C75.6842 35.8987 75.8534 36.0326 75.9883 36.1942C76.39 36.2976 77.0245 37.0351 78.3834 37.2501C79.3465 37.4024 79.5218 37.1099 80.1218 37.3343C81.2837 37.7688 80.865 38.955 82.0616 39.7445C83.1125 40.4379 83.8924 39.8244 84.8843 40.6018C85.6631 41.2122 85.3462 41.7189 86.1937 42.3461C87.1111 43.0251 88.2989 43.0355 88.555 43.0327C89.3338 43.0242 89.9416 42.8019 90.3773 42.6426C90.5114 42.4883 90.6281 42.3097 90.7138 42.1029C91.0263 41.3485 90.8034 40.5257 90.3182 40.0174C89.6965 39.3662 89.024 39.629 88.5631 39.0499C88.0932 38.4594 88.601 37.9456 88.5778 37.0684C88.3505 36.766 88.0684 36.4219 87.7252 36.0594C86.8668 35.1528 86.4899 35.043 85.9803 34.4511C84.8452 33.1327 85.6798 32.4743 84.7923 31.4161C83.7162 30.1329 82.2569 30.8243 80.1761 29.1945C79.3332 28.5343 79.3384 28.2373 78.8013 28.0869C77.3108 27.6692 75.2837 29.4005 73.755 30.9968L77.8188 24.3016C77.3866 24.1734 76.9374 24.0862 76.4961 24.0273L67.9762 34.3901Z" fill="#FF2D77"/>
<path d="M73.755 30.9968C75.2837 29.4005 77.3108 27.6692 78.8013 28.0869C79.3383 28.2373 79.3332 28.5343 80.1761 29.1945C82.2569 30.8243 83.7162 30.1329 84.7923 31.4161C85.6797 32.4743 84.8452 33.1327 85.9803 34.4512C86.4899 35.043 86.8668 35.1528 87.7252 36.0594C88.0684 36.4219 88.3505 36.766 88.5778 37.0684C88.5744 36.9406 88.5599 36.8052 88.5293 36.6606C88.2525 35.3518 87.1333 35.49 86.355 33.828C85.88 32.8138 86.2109 32.579 85.6094 31.3052C85.3136 30.679 85.0233 30.0642 84.4005 29.4899C83.1216 28.3107 82.0281 28.7653 81.0037 27.6721C80.2749 26.8943 80.6198 26.4417 79.9656 25.619C79.4402 24.9584 78.6621 24.5517 77.8188 24.3016L73.755 30.9968Z" fill="#E62769"/>
<path d="M88.555 43.0327C88.2989 43.0355 87.1111 43.025 86.1937 42.3461C85.3462 41.7189 85.6631 41.2122 84.8843 40.6018C83.8924 39.8244 83.1124 40.4379 82.0615 39.7445C80.865 38.955 81.2837 37.7688 80.1218 37.3343C79.5218 37.1099 79.3465 37.4024 78.3834 37.2501C77.0245 37.0351 76.3899 36.2976 75.9883 36.1942C76.2764 36.5392 76.4073 37.0107 77.1267 37.3555C78.1832 37.8619 78.7781 37.2651 79.7575 37.7408C80.8535 38.273 80.402 39.1628 81.5024 39.8844C82.6881 40.6619 83.7128 39.9572 84.6895 40.7696C85.4448 41.3979 84.9943 41.9542 85.8156 42.7253C85.9045 42.8088 87.1044 43.8979 88.6984 43.5595C88.8414 43.5292 89.7827 43.3265 90.3773 42.6426C89.9416 42.8019 89.3338 43.0242 88.555 43.0327Z" fill="#FF82AD"/>
<path d="M45.7765 68.4738C45.6815 68.9547 45.583 69.4335 45.4806 69.9102C47.8946 72.3024 51.0669 74.0654 54.6567 74.8928C54.3168 73.77 54.026 72.556 53.7703 71.2936C50.6843 71.1633 47.8907 70.1157 45.7765 68.4738Z" fill="#DDE8FF"/>
<path d="M73.2294 49.9656C73.4253 45.6385 72.9997 41.5824 72.197 37.8589C70.9811 36.2155 69.2826 34.7973 67.243 33.7101C65.4958 39.2206 62.6453 45.3138 57.9162 50.7197C63.2078 51.9767 67.0806 56.0187 67.0806 60.8112C67.0806 66.6081 61.4143 71.3075 54.4245 71.3075C54.2051 71.3075 53.987 71.3028 53.7703 71.2937C54.026 72.5561 54.3168 73.77 54.6567 74.8928C55.3844 75.0606 56.1293 75.1896 56.8884 75.2779C59.8936 74.5242 63.1464 73.1107 66.0048 70.5281C72.5669 64.5989 72.9464 56.2167 73.2294 49.9656Z" fill="#57626F"/>
<path d="M41.7686 60.8112C41.7686 58.2043 42.9149 55.8197 44.8118 53.9843C42.5602 50.8326 41.3037 47.4272 40.6542 44.1633C40.6945 45.4637 41.0017 46.715 41.5373 47.888C42.2955 49.5484 42.3427 51.4389 41.6829 53.1407C41.0133 54.8677 40.6493 56.7232 40.6493 58.6552C40.6493 62.9872 42.4785 66.9352 45.4806 69.9103C45.583 69.4336 45.6816 68.9547 45.7765 68.4738C43.3103 66.5586 41.7686 63.8344 41.7686 60.8112Z" fill="#57626F"/>
<path d="M56.5388 46.2378C55.9892 47.665 55.4161 49.0256 54.8301 50.3208C55.8974 50.3487 56.9314 50.4858 57.9163 50.7197C62.6454 45.3138 65.4959 39.2206 67.243 33.7101C66.8336 33.4918 66.4105 33.2869 65.9748 33.0962L58.9179 39.0183C58.2955 41.2747 57.5173 43.6966 56.5388 46.2378Z" fill="#4A535E"/>
<path d="M46.1271 52.8856C45.9428 52.1624 45.7651 51.4228 45.5956 50.6661C44.6917 46.6304 44.1884 42.884 43.9307 39.5377L41.4147 40.1327C40.9176 41.3129 40.6493 42.5683 40.6493 43.8704C40.6493 43.9683 40.6512 44.0659 40.6542 44.1633C41.3037 47.4272 42.5602 50.8326 44.8118 53.9843C45.2173 53.5919 45.6568 53.2245 46.1271 52.8856Z" fill="#4A535E"/>
<path d="M52.2164 52.9313C52.6702 52.9313 53.1159 52.9579 53.5516 53.0087C53.982 52.1473 54.4093 51.2507 54.8301 50.3208C54.6954 50.3173 54.5604 50.3149 54.4246 50.3149C51.2501 50.3149 48.3488 51.2843 46.1271 52.8856C46.267 53.4345 46.4107 53.9738 46.5577 54.5031C48.1012 53.5206 50.0706 52.9313 52.2164 52.9313Z" fill="#E6EEFF"/>
<path d="M52.2164 66.9498C49.9737 66.9498 47.9232 66.3064 46.3508 65.2428C46.1785 66.33 45.9871 67.4071 45.7765 68.4738C47.8908 70.1158 50.6843 71.1633 53.7703 71.2937C53.4836 69.8779 53.2413 68.4012 53.0253 66.9211C52.7588 66.9398 52.4891 66.9498 52.2164 66.9498Z" fill="#E6EEFF"/>
<path d="M55.3724 53.3782C58.768 54.3763 61.1843 56.9377 61.1843 59.9406C61.1843 63.5986 57.599 66.6015 53.0253 66.9212C53.2413 68.4012 53.4835 69.878 53.7703 71.2937C53.987 71.3028 54.2051 71.3075 54.4246 71.3075C61.4143 71.3075 67.0806 66.6081 67.0806 60.8112C67.0806 56.0188 63.2078 51.9767 57.9162 50.7197C57.1223 51.6272 56.2758 52.5155 55.3724 53.3782Z" fill="#6C798A"/>
<path d="M43.2484 59.9406C43.2484 58.0805 44.1758 56.3898 45.6886 55.135C45.4014 54.7811 45.1202 54.4145 44.8467 54.0338C44.8349 54.0173 44.8235 54.0008 44.8118 53.9843C42.9149 55.8197 41.7686 58.2043 41.7686 60.8112C41.7686 63.8344 43.3103 66.5586 45.7765 68.4739C45.9871 67.4072 46.1785 66.33 46.3508 65.2428C44.4506 63.9576 43.2484 62.0588 43.2484 59.9406Z" fill="#6C798A"/>
<path d="M53.5515 53.0088C54.1824 53.0824 54.7916 53.2075 55.3724 53.3782C56.2759 52.5155 57.1224 51.6272 57.9162 50.7197C56.9314 50.4858 55.8974 50.3487 54.8301 50.3208C54.4093 51.2508 53.9819 52.1473 53.5515 53.0088Z" fill="#4A535E"/>
<path d="M45.6886 55.1349C45.9601 54.9097 46.2504 54.6986 46.5577 54.503C46.4107 53.9737 46.2669 53.4345 46.127 52.8855C45.6568 53.2244 45.2173 53.5919 44.8118 53.9842C44.8235 54.0007 44.8349 54.0173 44.8467 54.0337C45.1202 54.4145 45.4014 54.7811 45.6886 55.1349Z" fill="#4A535E"/>
<path d="M46.5577 54.503C46.785 55.3215 47.0199 56.1167 47.2605 56.8874C47.23 57.3992 47.1949 57.9132 47.1548 58.4294C46.9754 60.7431 46.704 63.0142 46.3508 65.2428C47.9233 66.3063 49.9737 66.9498 52.2164 66.9498C52.4891 66.9498 52.7588 66.9397 53.0253 66.9211C52.6349 64.2464 52.3295 61.5627 51.9997 59.2171C51.87 58.2944 51.7706 57.3859 51.6984 56.4929C52.3146 55.4021 52.9361 54.2405 53.5516 53.0087C53.1159 52.9579 52.6702 52.9313 52.2164 52.9313C50.0706 52.9313 48.1012 53.5206 46.5577 54.503Z" fill="white"/>
<path d="M51.6984 56.4929C51.7706 57.386 51.87 58.2944 51.9997 59.2171C52.3295 61.5627 52.6349 64.2464 53.0253 66.9211C57.5991 66.6014 61.1844 63.5985 61.1844 59.9406C61.1844 56.9377 58.7681 54.3763 55.3724 53.3782C55.0658 53.671 54.7526 53.961 54.4328 54.2477C53.5319 55.0554 52.6181 55.8021 51.6984 56.4929Z" fill="#8696AB"/>
<path d="M47.2605 56.8874C46.721 56.3426 46.1951 55.7591 45.6886 55.1349C44.1758 56.3898 43.2484 58.0804 43.2484 59.9406C43.2484 62.0588 44.4506 63.9575 46.3508 65.2428C46.704 63.0142 46.9754 60.7431 47.1548 58.4295C47.1949 57.9132 47.23 57.3992 47.2605 56.8874Z" fill="#8696AB"/>
<path d="M54.4328 54.2477C54.7526 53.961 55.0658 53.671 55.3724 53.3782C54.7917 53.2075 54.1824 53.0823 53.5516 53.0087C52.9361 54.2405 52.3146 55.4021 51.6984 56.4929C52.6181 55.8021 53.5319 55.0554 54.4328 54.2477Z" fill="#4A535E"/>
<path d="M46.5576 54.5031C46.2503 54.6987 45.96 54.9098 45.6885 55.135C46.195 55.7591 46.7209 56.3426 47.2604 56.8875C47.0198 56.1168 46.7849 55.3216 46.5576 54.5031Z" fill="#4A535E"/>
<path d="M77.9643 58.6552C77.9643 56.9201 77.6708 55.2466 77.1261 53.6725L73.9556 41.4575L73.9546 41.4576C73.6175 40.1771 73.0168 38.9668 72.197 37.8588C72.9997 41.5824 73.4253 45.6385 73.2294 49.9656C72.9464 56.2167 72.5669 64.5989 66.0047 70.528C63.1464 73.1107 59.8936 74.5241 56.8884 75.2779C57.6801 75.37 58.4872 75.4177 59.3067 75.4177C69.611 75.4177 77.9643 67.9129 77.9643 58.6552Z" fill="#4A535E"/>
<path d="M69.8794 33.5582C71.7848 33.3899 74.6411 33.3446 77.9107 34.0993C79.5757 34.4835 83.7553 35.4799 87.3142 38.6397C87.3204 38.6452 87.3265 38.6506 87.3326 38.6561C87.6379 38.9279 88.1603 38.6185 87.9932 38.2641C87.7629 37.7757 87.4851 37.2502 87.1495 36.7026C86.6412 35.873 84.8639 33.1378 81.2167 30.8123C78.8875 29.3271 76.5868 28.5136 74.8188 28.0536L69.8794 33.5582Z" fill="#E62769"/>
<path d="M69.6849 33.544C71.4602 33.2316 74.4569 32.9226 77.9368 33.6632C81.3348 34.3863 83.8778 35.8303 85.616 37.1372C86.1303 37.5239 86.8848 36.9627 86.5465 36.4463C86.2261 35.9573 85.8614 35.4607 85.4458 34.9645C81.3736 30.1031 75.2993 28.7241 73.0392 28.3194L69.6849 33.544Z" fill="#C1B5FF"/>
<path d="M73.2053 32.5219C74.2692 32.3717 75.7542 32.2915 77.4709 32.6127C79.8102 33.0504 81.5922 34.0487 82.7615 34.8844C82.9669 35.0312 83.224 34.7851 83.0851 34.5742C82.6982 33.9871 82.1986 33.3529 81.555 32.7369C79.2562 30.5365 76.5865 29.971 75.4289 29.7992L73.2053 32.5219Z" fill="#D4CCFF"/>
<path d="M75.4567 31.9745C76.1488 31.9573 77.155 32.01 78.3078 32.3515C78.8856 32.5228 79.3917 32.7344 79.8231 32.9508C79.9554 33.0171 80.071 32.8359 79.955 32.744C79.7377 32.5717 79.4954 32.3991 79.2267 32.2337C78.0572 31.5138 76.9368 31.2675 76.2342 31.1734L75.4567 31.9745Z" fill="#EAE6FF"/>
<path d="M77.28 10.7077C74.2025 6.66244 69.2501 3.44028 63.2483 1.62494C65.5551 3.1637 67.5305 4.92184 69.0953 6.84893C71.6799 10.0318 73.1471 13.674 73.1471 17.5439C73.1471 28.9451 60.4151 38.371 43.8799 39.8914C46.452 40.4275 49.1738 40.7155 51.9907 40.7155C67.8493 40.7155 80.7052 31.6011 80.7052 20.3578C80.7052 16.8659 79.4649 13.5796 77.28 10.7077Z" fill="#A594FF"/>
<path d="M73.1471 17.5439C73.1471 13.6739 71.6799 10.0318 69.0953 6.84891C67.5305 4.92182 65.5551 3.16368 63.2484 1.62492C59.7914 0.579301 55.9867 0 51.9908 0C36.1322 0 23.2762 9.11447 23.2762 20.3578C23.2762 26.7308 27.4072 32.4197 33.8739 36.1525C36.7892 37.8354 40.1795 39.1202 43.8799 39.8914C60.4151 38.371 73.1471 28.9451 73.1471 17.5439Z" fill="#C1B5FF"/>
<path d="M44.4511 24.74C53.4827 24.74 60.8043 20.0384 60.8043 14.2387C60.8043 8.43899 53.4827 3.73743 44.4511 3.73743C35.4196 3.73743 28.098 8.43899 28.098 14.2387C28.098 20.0384 35.4196 24.74 44.4511 24.74Z" fill="#D4CCFF"/>
<path d="M43.3873 18.4097C48.992 18.4097 53.5356 15.4921 53.5356 11.893C53.5356 8.29387 48.992 5.37622 43.3873 5.37622C37.7826 5.37622 33.2391 8.29387 33.2391 11.893C33.2391 15.4921 37.7826 18.4097 43.3873 18.4097Z" fill="#EAE6FF"/>
<path d="M34.3656 28.7263C35.0908 27.1314 34.0199 25.0843 31.9738 24.1539C29.9277 23.2235 27.6811 23.7622 26.9559 25.3571C26.2307 26.9519 27.3015 28.999 29.3476 29.9294C31.3938 30.8598 33.6404 30.3211 34.3656 28.7263Z" fill="#FF2D77"/>
<path d="M32.8097 27.441C33.2936 26.3769 32.5791 25.011 31.2138 24.3902C29.8486 23.7694 28.3496 24.1288 27.8657 25.193C27.3819 26.2571 28.0964 27.623 29.4616 28.2438C30.8268 28.8645 32.3258 28.5051 32.8097 27.441Z" fill="#FF5E97"/>
<path d="M31.9618 26.3586C32.2435 25.739 31.737 24.9027 30.8306 24.4905C29.9241 24.0783 28.961 24.2464 28.6793 24.866C28.3976 25.4855 28.904 26.3219 29.8105 26.734C30.7169 27.1462 31.6801 26.9781 31.9618 26.3586Z" fill="#FF80AD"/>
<path d="M65.885 30.6383C68.2449 29.5653 69.5662 27.3938 68.8362 25.7882C68.1061 24.1827 65.6012 23.751 63.2412 24.8241C60.8813 25.8972 59.56 28.0687 60.29 29.6742C61.0201 31.2798 63.525 31.7114 65.885 30.6383Z" fill="#FF2D77"/>
<path d="M65.7851 28.8763C67.3597 28.1604 68.244 26.7173 67.7601 25.6532C67.2762 24.589 65.6075 24.3068 64.0329 25.0228C62.4583 25.7388 61.574 27.1819 62.0579 28.246C62.5417 29.3101 64.2105 29.5923 65.7851 28.8763Z" fill="#FF5E97"/>
<path d="M65.4793 27.347C66.5248 26.8717 67.144 25.9841 66.8623 25.3645C66.5806 24.745 65.5047 24.6281 64.4592 25.1035C63.4137 25.5789 62.7945 26.4665 63.0762 27.0861C63.3579 27.7056 64.4338 27.8224 65.4793 27.347Z" fill="#FF80AD"/>
<path d="M61.5257 13.2312C61.8205 12.6424 60.8932 11.5811 59.4544 10.8607C58.0156 10.1403 56.6102 10.0336 56.3154 10.6223C56.0206 11.2111 56.948 12.2724 58.3868 12.9928C59.8256 13.7133 61.2309 13.82 61.5257 13.2312Z" fill="#57626F"/>
<path d="M63.6186 18.641C63.7894 19.2314 63.882 19.8641 63.882 20.5221C63.882 23.7579 61.6425 26.381 58.88 26.381C58.3537 26.381 57.8465 26.2855 57.3701 26.109C58.1804 26.9535 59.2622 27.4698 60.4511 27.4698C62.9626 27.4698 64.9986 25.1679 64.9986 22.3283C64.9986 20.8816 64.4693 19.5753 63.6186 18.641Z" fill="#4A535E"/>
<path d="M63.8821 20.5221C63.8821 19.8641 63.7894 19.2314 63.6187 18.641C62.7997 17.7416 61.683 17.1869 60.4511 17.1869C57.9396 17.1869 55.9036 19.4888 55.9036 22.3283C55.9036 23.8238 56.4687 25.1696 57.3702 26.109C57.8466 26.2855 58.3538 26.381 58.88 26.381C61.6426 26.381 63.8821 23.7579 63.8821 20.5221Z" fill="#57626F"/>
<path d="M58.5778 25.3062C59.4122 25.3062 60.0887 24.6298 60.0887 23.7954C60.0887 22.961 59.4122 22.2845 58.5778 22.2845C57.7434 22.2845 57.067 22.961 57.067 23.7954C57.067 24.6298 57.7434 25.3062 58.5778 25.3062Z" fill="#8E9FB5"/>
<path d="M60.4686 21.7833C60.9485 21.7833 61.3375 21.3943 61.3375 20.9144C61.3375 20.4345 60.9485 20.0455 60.4686 20.0455C59.9887 20.0455 59.5997 20.4345 59.5997 20.9144C59.5997 21.3943 59.9887 21.7833 60.4686 21.7833Z" fill="#8E9FB5"/>
<path d="M58.4118 24.9657C58.939 24.9657 59.3664 24.5383 59.3664 24.0111C59.3664 23.4839 58.939 23.0566 58.4118 23.0566C57.8847 23.0566 57.4573 23.4839 57.4573 24.0111C57.4573 24.5383 57.8847 24.9657 58.4118 24.9657Z" fill="#BED4F2"/>
<path d="M60.4514 21.5779C60.7462 21.5779 60.9851 21.339 60.9851 21.0442C60.9851 20.7495 60.7462 20.5106 60.4514 20.5106C60.1567 20.5106 59.9177 20.7495 59.9177 21.0442C59.9177 21.339 60.1567 21.5779 60.4514 21.5779Z" fill="#BED4F2"/>
<path d="M37.6691 12.9928C39.1079 12.2724 40.0353 11.2111 39.7405 10.6223C39.4457 10.0335 38.0403 10.1403 36.6015 10.8607C35.1627 11.5811 34.2353 12.6424 34.5301 13.2312C34.8249 13.8199 36.2303 13.7132 37.6691 12.9928Z" fill="#57626F"/>
<path d="M39.2693 18.641C39.44 19.2314 39.5327 19.8641 39.5327 20.5221C39.5327 23.7579 37.2932 26.381 34.5306 26.381C34.0044 26.381 33.4972 26.2855 33.0208 26.109C33.831 26.9535 34.9128 27.4698 36.1017 27.4698C38.6132 27.4698 40.6493 25.1679 40.6493 22.3283C40.6493 20.8816 40.1199 19.5753 39.2693 18.641Z" fill="#4A535E"/>
<path d="M39.5327 20.5221C39.5327 19.8641 39.4401 19.2314 39.2693 18.641C38.4504 17.7416 37.3336 17.1869 36.1017 17.1869C33.5902 17.1869 31.5542 19.4888 31.5542 22.3283C31.5542 23.8238 32.1193 25.1696 33.0208 26.109C33.4972 26.2855 34.0044 26.381 34.5307 26.381C37.2932 26.381 39.5327 23.7579 39.5327 20.5221Z" fill="#57626F"/>
<path d="M34.2417 25.3062C35.0761 25.3062 35.7525 24.6298 35.7525 23.7954C35.7525 22.961 35.0761 22.2845 34.2417 22.2845C33.4073 22.2845 32.7308 22.961 32.7308 23.7954C32.7308 24.6298 33.4073 25.3062 34.2417 25.3062Z" fill="#8E9FB5"/>
<path d="M36.1324 21.7833C36.6123 21.7833 37.0013 21.3943 37.0013 20.9144C37.0013 20.4345 36.6123 20.0455 36.1324 20.0455C35.6526 20.0455 35.2635 20.4345 35.2635 20.9144C35.2635 21.3943 35.6526 21.7833 36.1324 21.7833Z" fill="#8E9FB5"/>
<path d="M34.0757 24.9657C34.6029 24.9657 35.0303 24.5383 35.0303 24.0111C35.0303 23.4839 34.6029 23.0566 34.0757 23.0566C33.5485 23.0566 33.1211 23.4839 33.1211 24.0111C33.1211 24.5383 33.5485 24.9657 34.0757 24.9657Z" fill="#BED4F2"/>
<path d="M36.1152 21.5779C36.41 21.5779 36.6489 21.339 36.6489 21.0442C36.6489 20.7495 36.41 20.5106 36.1152 20.5106C35.8205 20.5106 35.5815 20.7495 35.5815 21.0442C35.5815 21.339 35.8205 21.5779 36.1152 21.5779Z" fill="#BED4F2"/>
<path d="M43.5519 31.203L45.6231 29.2271C46.1727 28.7028 47.0202 28.6512 47.6294 29.1047L50.8629 31.5122L47.1954 30.1339C46.8227 29.9939 46.4106 30.0017 46.0435 30.156L43.5519 31.203Z" fill="#57626F"/>
<path d="M58.5998 66.5443C58.4092 67.6948 58.421 68.6388 58.4702 69.2975C58.5339 70.1492 58.7121 70.8537 59.025 72.2375C59.0271 72.2466 59.0292 72.2557 59.0312 72.2648C59.3583 73.7065 60.8182 74.5871 62.2498 74.2183C64.1238 73.7356 66.1258 73.1225 68.2189 72.3409C69.3425 71.9212 70.4091 71.4835 71.4207 71.037C71.8337 70.649 72.2253 70.1984 72.5605 69.6792C73.7277 67.8706 73.6846 65.5296 72.6933 63.7361C71.4069 62.8988 69.5437 61.7643 67.126 61.8779C65.259 61.9656 63.7912 62.7635 61.8093 63.8409C58.6619 65.5518 57.0655 67.3577 57.0456 67.3355C57.0385 67.3276 57.2226 67.0777 57.5571 66.6664C57.4017 66.8008 57.2434 66.9374 57.079 67.0785C54.9756 68.8821 53.1916 70.3022 51.9998 71.2299L53.2745 75.2711C53.3359 73.4901 53.3887 72.0901 53.3887 72.0901L58.5998 66.5443Z" fill="#57626F"/>
<path d="M67.7852 73.0748C68.2027 73.0087 69.9474 72.4212 71.4207 71.037C70.4092 71.4835 69.3425 71.9213 68.2189 72.3409C66.1258 73.1226 64.1238 73.7356 62.2498 74.2183C60.8182 74.5871 59.3583 73.7066 59.0313 72.2649C59.0292 72.2558 59.0271 72.2466 59.0251 72.2375C58.7122 70.8538 58.5339 70.1493 58.4703 69.2975C58.421 68.6388 58.4092 67.6949 58.5999 66.5443L53.3888 72.0902C53.3888 72.0902 53.3359 73.4901 53.2745 75.2711L54.1421 78.0215L67.7852 73.0748Z" fill="#4A535E"/>
<path d="M61.8093 63.8409C63.7913 62.7635 65.259 61.9657 67.1261 61.8779C69.5437 61.7644 71.407 62.8989 72.6933 63.7362C72.2632 62.958 71.6557 62.2824 70.8894 61.799C68.825 60.497 66.0792 61.1448 65.1785 61.3574C62.5842 61.9695 61.4411 63.3061 57.5572 66.6664C57.2227 67.0777 57.0385 67.3276 57.0456 67.3355C57.0656 67.3578 58.662 65.5519 61.8093 63.8409Z" fill="#6C798A"/>
<path d="M69.2303 68.9335C71.2155 67.686 72.0546 65.4493 71.1046 63.9376C70.1547 62.4259 67.7753 62.2117 65.7902 63.4592C63.8051 64.7067 62.9659 66.9435 63.9159 68.4552C64.8659 69.9668 67.2452 70.181 69.2303 68.9335Z" fill="#6C798A"/>
<path d="M68.6559 67.3123C69.9126 66.5226 70.4438 65.1066 69.8424 64.1496C69.2411 63.1926 67.7348 63.0571 66.4781 63.8468C65.2214 64.6365 64.6902 66.0525 65.2915 67.0095C65.8929 67.9665 67.3992 68.1021 68.6559 67.3123Z" fill="#8696AB"/>
<path d="M51.7569 76.8049C53.2534 77.1246 54.5889 75.876 55.111 75.3879C56.0693 74.4919 56.6023 73.4084 56.8983 72.4156C56.9053 72.212 56.9132 71.9863 56.9223 71.7369C56.9477 71.0385 56.9746 70.7751 57.0028 70.4027C57.0748 69.451 57.1327 69.0474 57.3935 68.5911C57.8681 67.7605 58.4645 67.7153 58.6817 67.1257C58.7876 66.9435 58.8578 66.7369 58.8784 66.5133C58.954 65.6914 58.3491 64.9639 57.5273 64.8882C56.8058 64.8218 56.2102 65.2982 55.9585 65.9491C55.9197 66.0493 55.9395 66.2741 55.7803 66.5006C55.7468 66.6513 55.6924 66.8096 55.6063 66.9672C55.2339 67.6496 54.3777 68.1292 54.0138 67.8971C53.8071 67.7652 53.8051 67.4331 53.8028 67.0703C53.8018 66.8973 53.815 66.6569 53.8768 66.3697C53.8999 66.0382 53.979 65.6738 54.1061 65.3771C54.2509 65.0391 54.3793 64.7776 54.4889 64.5609C54.7854 64.2876 54.9869 63.9092 55.0268 63.476C55.1122 62.5475 54.4288 61.7256 53.5004 61.6402C52.5719 61.5547 51.7499 62.2381 51.6645 63.1665C51.6426 63.4041 51.6717 63.6343 51.7417 63.8473C51.7542 64.256 51.8805 64.5748 51.9486 65.0358C52.0695 65.4089 52.1737 65.869 52.1959 66.4021C52.2143 66.8432 52.2396 67.45 51.9811 67.5664C51.7772 67.6582 51.4614 67.416 51.1872 67.1383C51.0069 67.0032 50.8144 66.7795 50.6487 66.504C50.6478 66.5027 50.6464 66.5009 50.6456 66.4998L50.6459 66.4993C50.485 66.2306 50.35 65.9148 50.2798 65.5848C50.2228 65.317 50.2034 65.0907 50.1974 64.8898C50.229 64.7878 50.251 64.6812 50.2611 64.5706C50.2936 64.2182 50.2044 63.8833 50.0302 63.6047C50.0278 63.6004 50.0261 63.5962 50.0236 63.5918C49.7568 63.1209 49.2289 62.7969 48.6692 62.8731C47.8916 62.8932 47.2345 63.4916 47.1614 64.2853C47.0995 64.9579 47.4762 65.5683 48.0553 65.8379C48.3278 66.0955 48.6591 66.3085 48.9409 66.7493C49.5826 67.7534 49.1941 68.733 48.9667 70.7268C48.8768 71.5147 48.788 72.1808 48.7297 72.7673C48.8698 73.3382 49.0831 73.9243 49.3963 74.5037C49.8273 75.3012 50.4944 76.5353 51.7569 76.8049Z" fill="#C1B5FF"/>
<path d="M49.0116 75.7138C49.0687 75.842 50.0964 78.063 52.0389 78.3066C54.4688 78.6114 56.7726 75.6263 56.8525 73.8601C56.8579 73.7418 56.8689 73.2826 56.8984 72.4155C56.6023 73.4084 56.0693 74.4919 55.111 75.3878C54.5889 75.8759 53.2534 77.1246 51.7569 76.8049C50.4944 76.5353 49.8274 75.3011 49.3963 74.5037C49.0831 73.9243 48.8698 73.3381 48.7297 72.7673C48.6103 73.9684 48.619 74.8334 49.0116 75.7138Z" fill="#A594FF"/>
<path d="M51.5802 67.2721C51.4727 67.301 51.3342 67.2483 51.1873 67.1383C51.4614 67.416 51.7773 67.6582 51.9811 67.5664C52.2397 67.4499 52.2143 66.8431 52.1959 66.4021C52.1737 65.869 52.0695 65.4089 51.9486 65.0358C51.9879 65.3018 52.008 65.6148 51.9753 66.0208C51.9377 66.4874 51.881 67.1913 51.5802 67.2721Z" fill="#A594FF"/>
<path d="M50.6488 66.504C50.6478 66.5024 50.6469 66.5009 50.6459 66.4993L50.6456 66.4998C50.6465 66.5009 50.6478 66.5027 50.6488 66.504Z" fill="#A594FF"/>
<path d="M53.8029 67.0703C53.8052 67.4331 53.8072 67.7652 54.0139 67.897C54.3777 68.1291 55.234 67.6495 55.6064 66.9672C55.6924 66.8096 55.7469 66.6512 55.7803 66.5006C55.7658 66.5213 55.7504 66.542 55.7327 66.5626C54.6441 67.4338 54.325 67.3898 54.099 67.28C53.9138 67.1901 53.8462 66.8087 53.8769 66.3697C53.8151 66.6569 53.8018 66.8973 53.8029 67.0703Z" fill="#A594FF"/>
<path d="M57.4246 67.3222C57.9906 67.3222 58.4495 66.8633 58.4495 66.2973C58.4495 65.7312 57.9906 65.2724 57.4246 65.2724C56.8585 65.2724 56.3997 65.7312 56.3997 66.2973C56.3997 66.8633 56.8585 67.3222 57.4246 67.3222Z" fill="#D4CCFF"/>
<path d="M57.355 66.7363C57.6847 66.7363 57.952 66.469 57.952 66.1392C57.952 65.8095 57.6847 65.5422 57.355 65.5422C57.0252 65.5422 56.7579 65.8095 56.7579 66.1392C56.7579 66.469 57.0252 66.7363 57.355 66.7363Z" fill="#EAE6FF"/>
<path d="M53.3278 64.5632C54.0156 64.5632 54.5733 64.0055 54.5733 63.3177C54.5733 62.6298 54.0156 62.0721 53.3278 62.0721C52.6399 62.0721 52.0823 62.6298 52.0823 63.3177C52.0823 64.0055 52.6399 64.5632 53.3278 64.5632Z" fill="#D4CCFF"/>
<path d="M53.149 63.8638C53.5843 63.8638 53.9371 63.511 53.9371 63.0758C53.9371 62.6405 53.5843 62.2877 53.149 62.2877C52.7138 62.2877 52.361 62.6405 52.361 63.0758C52.361 63.511 52.7138 63.8638 53.149 63.8638Z" fill="#EAE6FF"/>
<path d="M44.9263 50.472C45.1834 50.4953 45.4404 50.5186 45.6974 50.5419C45.7747 50.5489 45.8273 50.5401 45.9009 50.5159L46.3443 50.3695C46.4584 50.3318 46.5726 50.2941 46.6867 50.2564L46.5702 50.2412C46.7749 50.3661 46.9795 50.491 47.1841 50.6159C47.3507 50.7175 47.5027 50.4561 47.3367 50.3548C47.1814 50.26 47.0261 50.1652 46.8707 50.0704C46.8146 50.0361 46.7517 49.9828 46.6867 49.9649C46.6172 49.9457 46.5323 49.9893 46.4677 50.0107C46.2598 50.0793 46.0518 50.1479 45.8439 50.2166C45.8145 50.2263 45.7841 50.2346 45.7553 50.2458C45.7089 50.2639 45.7973 50.2539 45.7644 50.2456C45.6923 50.2275 45.6072 50.2314 45.5335 50.2247C45.3311 50.2063 45.1287 50.188 44.9263 50.1696C44.8449 50.1622 44.7751 50.2444 44.7751 50.3208C44.7751 50.4087 44.8447 50.4646 44.9263 50.472Z" fill="#FF8222"/>
<path d="M44.8642 50.4454C45.1644 50.3098 45.4646 50.1743 45.7648 50.0387L45.6885 50.0594H45.9511C46.1457 50.0594 46.146 49.757 45.9511 49.757C45.8648 49.757 45.7773 49.7528 45.6911 49.757C45.6283 49.7601 45.5589 49.8017 45.5018 49.8275L44.8852 50.1059C44.8274 50.1321 44.7695 50.1582 44.7116 50.1843C44.6372 50.2179 44.6192 50.3259 44.6574 50.3912C44.7021 50.4677 44.7895 50.4791 44.8642 50.4454Z" fill="#FF8222"/>
<path d="M46.5174 50.693C46.2366 50.8105 45.9557 50.9279 45.6749 51.0454L45.7914 51.0606C45.6554 50.9852 45.5192 50.9101 45.3829 50.8354C45.2321 50.7527 45.0815 50.6564 44.923 50.5891C44.8149 50.5433 44.7046 50.5964 44.6955 50.7197C44.6847 50.8647 44.674 51.0098 44.6632 51.1548C44.653 51.2929 44.7724 51.3517 44.8677 51.4275L45.3018 51.7724C45.3856 51.8389 45.4689 51.9286 45.5802 51.9306C45.8925 51.936 46.2053 51.9306 46.5176 51.9306C46.5281 51.9306 46.5447 51.9338 46.5549 51.9306C46.5382 51.9359 46.5012 51.9157 46.5397 51.9337C46.6032 51.9634 46.6726 51.9843 46.7381 52.0093C46.8909 52.0676 47.0427 52.1331 47.1979 52.1847C47.2519 52.2026 47.2961 52.1949 47.3472 52.1755L47.5962 52.0811C47.7414 52.026 47.8866 51.971 48.0318 51.9159C48.1081 51.887 48.1604 51.814 48.1373 51.73C48.1172 51.6568 48.0281 51.5953 47.9514 51.6244C47.7076 51.7168 47.4639 51.8092 47.2202 51.9016H47.3006C47.1975 51.8623 47.0943 51.823 46.9912 51.7837C46.8655 51.7357 46.7395 51.6771 46.6106 51.6385C46.538 51.6168 46.452 51.6282 46.3773 51.6282H45.5521L45.659 51.6725C45.4122 51.4764 45.1654 51.2803 44.9186 51.0842L44.9629 51.1911C44.9745 51.034 44.9862 50.8768 44.9978 50.7197L44.7703 50.8502C44.884 50.8985 44.992 50.9663 45.1003 51.0253C45.2498 51.1069 45.399 51.1891 45.5481 51.2715C45.5781 51.2881 45.6077 51.3063 45.6385 51.3215C45.7048 51.3543 45.7497 51.3392 45.809 51.3145L46.2388 51.1347C46.3585 51.0847 46.4781 51.0347 46.5978 50.9846C46.6731 50.9531 46.727 50.8845 46.7034 50.7986C46.6839 50.7276 46.5932 50.6613 46.5174 50.693Z" fill="#FF8222"/>
<path d="M44.5064 50.7425C44.6993 50.7408 44.8976 50.7717 45.0898 50.7868C45.3885 50.8102 45.6873 50.8339 45.986 50.8577C46.0546 50.8632 46.1233 50.8686 46.1919 50.8741L46.0614 50.7993C46.2071 50.994 46.3528 51.1888 46.4985 51.3835C46.5508 51.4534 46.6242 51.4762 46.7054 51.4377C46.9159 51.338 47.1263 51.2383 47.3368 51.1385C47.4105 51.1036 47.4297 50.9978 47.391 50.9317C47.3468 50.8562 47.2582 50.8424 47.1842 50.8775C46.9737 50.9772 46.7632 51.0769 46.5528 51.1767L46.7596 51.2309C46.6535 51.089 46.5473 50.9471 46.4411 50.8053C46.4019 50.7528 46.363 50.7001 46.3234 50.648C46.272 50.5802 46.2121 50.5734 46.1375 50.5674C45.7326 50.5351 45.3278 50.5029 44.9228 50.4713C44.7857 50.4606 44.6441 50.4389 44.5064 50.4401C44.3119 50.4418 44.3114 50.7441 44.5064 50.7425Z" fill="#FF8222"/>
<path d="M49.8184 64.4654C49.8693 63.913 49.397 63.4179 48.7635 63.3596C48.13 63.3012 47.5753 63.7018 47.5244 64.2543C47.4736 64.8067 47.9459 65.3018 48.5794 65.3601C49.2128 65.4185 49.7676 65.0179 49.8184 64.4654Z" fill="#D4CCFF"/>
<path d="M49.1273 64.2269C49.1579 63.8945 48.8737 63.5966 48.4926 63.5615C48.1114 63.5264 47.7776 63.7675 47.747 64.0999C47.7165 64.4323 48.0006 64.7302 48.3818 64.7652C48.763 64.8003 49.0967 64.5593 49.1273 64.2269Z" fill="#EAE6FF"/>
<path d="M54.743 72.6864C54.9202 70.7612 54.1289 69.1144 52.9755 69.0082C51.8222 68.9021 50.7435 70.3767 50.5663 72.302C50.3891 74.2272 51.1805 75.874 52.3338 75.9802C53.4872 76.0863 54.5658 74.6117 54.743 72.6864Z" fill="#D4CCFF"/>
<path d="M44.7475 49.9375C43.346 49.5924 41.8742 49.7116 40.5816 50.3728C39.5579 50.8965 38.7366 51.769 38.1375 52.7388C37.6916 53.4608 37.3048 54.2706 37.1362 55.1042C37.0319 55.62 36.9875 56.147 36.9251 56.6689C36.917 56.7361 36.9088 56.8033 36.9003 56.8705C36.8965 56.9005 36.8925 56.9306 36.8886 56.9606C36.8728 57.0852 36.9148 56.7784 36.8957 56.9062C36.8702 57.0769 36.8455 57.2475 36.8168 57.4177C36.7562 57.7774 36.6834 58.1349 36.6111 58.4924C36.472 59.1803 36.3231 59.8675 36.1196 60.5396C36.0694 60.7051 36.016 60.8696 35.9588 61.0328C35.9302 61.1144 35.9005 61.1957 35.8698 61.2766C35.8567 61.3114 35.8434 61.3461 35.8298 61.3806C35.8297 61.381 35.7441 61.5961 35.7915 61.4792C35.8328 61.3774 35.7854 61.4932 35.7788 61.5081C35.7585 61.5537 35.7385 61.5994 35.7177 61.6448C35.6864 61.7131 35.6543 61.7811 35.6213 61.8487C35.5378 62.0197 35.4485 62.1879 35.3535 62.3528C35.1867 62.6423 35.001 62.9188 34.8023 63.1871C34.6997 63.3258 34.895 63.0737 34.7865 63.2069C34.7394 63.2648 34.6926 63.3228 34.6445 63.3799C34.5424 63.501 34.4372 63.6195 34.3288 63.7352C34.1301 63.9474 33.9214 64.1503 33.7045 64.3439C33.5979 64.439 33.4893 64.5319 33.3789 64.6226C33.3243 64.6675 33.2684 64.711 33.2136 64.7557C33.1355 64.8194 33.2792 64.7056 33.2783 64.7065C33.2429 64.7405 33.1979 64.7678 33.1588 64.7971C32.3307 65.416 31.4223 65.9228 30.479 66.3432C30.4049 66.3763 30.0503 66.5235 30.3509 66.401C30.2548 66.4402 30.1593 66.4806 30.063 66.5191C29.8818 66.5917 29.6994 66.6614 29.5162 66.7287C29.1728 66.8548 28.8266 66.9758 28.4778 67.0858C27.9881 67.2402 27.4873 67.3446 26.9928 67.4802C26.4356 67.633 25.9014 67.878 25.4031 68.1685C24.2871 68.8189 23.3531 69.7063 22.5692 70.7249C22.1495 71.2702 21.8092 71.8537 21.4728 72.4515C21.4074 72.5676 21.3358 72.6801 21.2581 72.7884C21.2375 72.817 21.2159 72.8448 21.1953 72.8733C21.1331 72.9595 21.3706 72.6527 21.2947 72.7445C21.2814 72.7606 21.2689 72.7773 21.2556 72.7934C21.2075 72.8516 21.1588 72.9092 21.1083 72.9654C20.9966 73.0893 20.8782 73.2072 20.7551 73.3198C20.6894 73.38 20.6222 73.4386 20.554 73.4959C20.4631 73.5721 20.1817 73.7788 20.4923 73.5502C20.1352 73.813 19.7681 74.0557 19.3817 74.2738C18.8951 74.5484 18.3906 74.7904 17.8777 75.0115C17.8475 75.0245 17.8171 75.0374 17.7869 75.0504C17.6612 75.1046 18.0179 74.9543 17.8651 75.0173C17.7861 75.0498 17.7073 75.0825 17.6281 75.1145C17.4743 75.1765 17.3199 75.2369 17.1648 75.2957C16.8238 75.4252 16.4801 75.5474 16.1344 75.6638C14.3746 76.2563 12.5683 76.7078 10.754 77.0981C8.21045 77.6453 5.64057 78.0671 3.06458 78.4283C2.87728 78.4546 2.68994 78.4805 2.50254 78.5061C2.44837 78.5135 2.3942 78.5208 2.34003 78.5282C2.32787 78.5298 2.19224 78.5481 2.2971 78.534C2.40222 78.5199 2.26556 78.5382 2.25352 78.5398C2.19848 78.5471 2.14344 78.5545 2.08839 78.5618C1.69509 78.6138 1.3016 78.6644 0.907964 78.7139C0.438938 78.7728 -0.0229503 79.0888 0.000884389 79.6209C0.0206241 80.0616 0.403707 80.5914 0.907964 80.528C3.7732 80.168 6.63343 79.7524 9.46973 79.2067C11.4647 78.8229 13.4521 78.3786 15.3999 77.7982C16.8 77.3811 18.1869 76.8906 19.5037 76.254C20.38 75.8303 21.2215 75.3231 21.954 74.6779C22.516 74.1829 22.9048 73.5931 23.2701 72.9482C23.4581 72.6162 23.6613 72.2929 23.8823 71.9819C23.9495 71.8874 24.0197 71.7953 24.0885 71.7019C24.146 71.6238 24.0197 71.7893 24.0259 71.783C24.0439 71.7646 24.0588 71.7409 24.075 71.7209C24.1202 71.665 24.1651 71.609 24.2111 71.5538C24.3889 71.3403 24.5759 71.1344 24.7719 70.9374C24.9776 70.7308 25.1933 70.5339 25.4186 70.3487C25.4454 70.3267 25.633 70.1788 25.5316 70.2567C25.4315 70.3336 25.6307 70.1842 25.6531 70.168C25.7824 70.0746 25.9144 69.985 26.049 69.8993C26.3144 69.7301 26.5899 69.5751 26.8745 69.4404C26.9026 69.4271 27.1143 69.3349 26.9646 69.3973C26.8161 69.4591 27.0079 69.3812 27.042 69.3684C27.1495 69.3282 27.2584 69.2922 27.3685 69.2598C27.8485 69.1187 28.3404 69.0239 28.8196 68.8786C29.187 68.7671 29.5508 68.6406 29.9118 68.5097C30.7908 68.191 31.6565 67.822 32.4793 67.3768C33.5012 66.824 34.4711 66.1426 35.3045 65.331C36.332 64.3305 37.0945 63.1302 37.606 61.7936C38.1102 60.4764 38.3909 59.0434 38.606 57.6529C38.6967 57.0667 38.774 56.474 38.8315 55.8833C38.8333 55.8649 38.7984 56.1079 38.8146 56.0095C38.8183 55.9869 38.821 55.964 38.8244 55.9414C38.8321 55.8892 38.8402 55.837 38.849 55.7849C38.8676 55.6743 38.8889 55.5641 38.9139 55.4548C38.9631 55.2393 39.0272 55.0275 39.105 54.8206C39.1195 54.7821 39.1957 54.5969 39.1373 54.7341C39.0786 54.8721 39.1635 54.6773 39.1814 54.6387C39.2164 54.5633 39.2527 54.4885 39.2893 54.4138C39.3614 54.2666 39.4361 54.1208 39.5154 53.9773C39.6123 53.8021 39.7156 53.6305 39.8261 53.4636C39.8882 53.3698 39.9534 53.2786 40.0191 53.1874C40.1354 53.0263 39.9184 53.3092 40.0155 53.1905C40.054 53.1435 40.0918 53.096 40.1311 53.0496C40.3029 52.8464 40.4884 52.6547 40.6877 52.4783C40.731 52.4401 40.7749 52.4025 40.8194 52.3658C40.8191 52.366 40.9002 52.2911 40.9105 52.2923C40.9149 52.2928 40.7613 52.4023 40.8446 52.3445C40.9697 52.2579 41.0924 52.1701 41.223 52.0916C41.3492 52.0157 41.4792 51.9459 41.6121 51.8825C41.6412 51.8686 41.6713 51.8562 41.7002 51.8418C41.7904 51.7969 41.6396 51.8698 41.6338 51.8685C41.6813 51.8789 41.8332 51.7921 41.8843 51.7746C42.0696 51.7112 42.259 51.6595 42.4508 51.6202C42.4901 51.6121 42.5294 51.6046 42.5689 51.5976C42.5971 51.5925 42.7633 51.5657 42.6419 51.5836C42.5307 51.6 42.6568 51.5823 42.6737 51.5808C42.7357 51.5753 42.7974 51.5692 42.8595 51.5651C43.1626 51.5449 43.4618 51.5595 43.7639 51.5857C43.9344 51.6004 43.5562 51.5499 43.7785 51.5876C43.8304 51.5964 43.8823 51.6048 43.9341 51.6145C44.0452 51.6353 44.1555 51.6598 44.2652 51.6868C44.7252 51.8001 45.2702 51.5399 45.381 51.0533C45.4877 50.5848 45.2403 50.0589 44.7475 49.9375Z" fill="#6110D3"/>
<path d="M53.9242 71.9084C54.0338 70.7182 53.5446 69.7002 52.8316 69.6345C52.1186 69.5689 51.4518 70.4805 51.3423 71.6707C51.2327 72.8609 51.7219 73.8789 52.4349 73.9446C53.1479 74.0102 53.8147 73.0986 53.9242 71.9084Z" fill="#EAE6FF"/>
<path d="M44.6472 48.1885L44.6473 48.1884C44.647 48.1883 44.6466 48.1881 44.6462 48.1879C44.5674 48.1353 44.4812 48.0932 44.39 48.0616C44.2042 47.9652 43.9973 47.8462 43.7806 47.7027C43.0094 47.5356 41.9413 47.4925 40.9131 48.0803C40.1226 48.5322 39.6698 49.177 39.4299 49.6164C39.4602 49.6688 39.4895 49.7186 39.5164 49.7633C39.5164 50.4338 40.06 50.9774 40.7306 50.9774C41.4011 50.9774 41.9447 50.4338 41.9447 49.7633C41.9447 49.6645 41.9316 49.5689 41.9092 49.477C41.7097 49.3431 41.5498 49.1451 41.5102 48.9111C41.4537 48.5771 41.6356 48.1326 42.0034 48.0284C42.3987 47.9164 42.7708 48.2648 42.912 48.5736C43.027 48.8251 43.0354 49.1529 42.9273 49.3808C43.0435 49.8787 43.4891 50.25 44.0223 50.25C44.6439 50.25 45.1478 49.7461 45.1478 49.1245C45.1478 48.7341 44.949 48.3904 44.6472 48.1885Z" fill="#C1B5FF"/>
<path d="M40.9131 48.0804C41.9413 47.4926 43.0094 47.5356 43.7806 47.7027C43.2353 47.3415 42.6259 46.8202 42.1193 46.0768C41.3438 44.9389 41.1438 43.7725 41.017 43.033C40.9277 42.5121 40.898 42.0715 40.8879 41.7617C40.491 41.9657 38.7454 42.9162 38.2897 44.7872C37.9181 46.3125 38.5658 47.7842 38.9931 48.7549C39.1467 49.104 39.3015 49.394 39.4299 49.6164C39.6699 49.177 40.1226 48.5322 40.9131 48.0804Z" fill="#57626F"/>
<path d="M42.9121 48.5736C42.7709 48.2648 42.3988 47.9164 42.0035 48.0284C41.6357 48.1326 41.4537 48.577 41.5103 48.9111C41.5498 49.1451 41.7097 49.3431 41.9093 49.477C41.8932 49.4108 41.8729 49.3462 41.8465 49.2847C41.8465 49.2846 41.8466 49.2846 41.8466 49.2845C41.9384 49.1096 41.9642 48.8466 42.1584 48.7731C42.3827 48.6883 42.6781 48.9144 42.8969 49.1245C42.8969 49.2128 42.9081 49.2983 42.9274 49.3808C43.0355 49.1529 43.0271 48.8251 42.9121 48.5736Z" fill="#A594FF"/>
<path d="M40.3682 47.5158C39.5331 47.2835 39.3477 46.1182 39.304 45.8434C39.0285 44.1126 40.4778 42.5861 40.6723 42.6761C40.8074 42.7386 40.2056 43.5204 40.4189 44.6018C40.6847 45.9501 41.9455 46.3846 41.7365 47.009C41.5965 47.4274 40.8871 47.6601 40.3682 47.5158Z" fill="#6C798A"/>
<path d="M40.1179 46.8564C39.7502 46.6891 39.6686 45.8497 39.6493 45.6517C39.528 44.405 40.1661 43.3054 40.2517 43.3702C40.3112 43.4152 40.0463 43.9784 40.1402 44.7574C40.2572 45.7286 40.8123 46.0416 40.7203 46.4913C40.6586 46.7928 40.3463 46.9604 40.1179 46.8564Z" fill="#8696AB"/>
<path d="M52.808 52.7079C52.7012 52.4877 52.5944 52.2675 52.4877 52.0473L52.5083 52.1236C52.481 51.7782 52.4537 51.4328 52.4264 51.0875C52.4199 51.0061 52.3615 50.9363 52.2752 50.9363C52.1984 50.9363 52.1175 51.0056 52.124 51.0875C52.1445 51.3462 52.1649 51.605 52.1854 51.8638C52.1929 51.9587 52.1858 52.0709 52.2114 52.1638C52.2223 52.2036 52.2482 52.2444 52.266 52.2812L52.367 52.4896C52.427 52.6132 52.4869 52.7369 52.5469 52.8605C52.5825 52.934 52.6872 52.9537 52.7537 52.9148C52.8287 52.8709 52.8437 52.7817 52.808 52.7079Z" fill="#FF8222"/>
<path d="M52.6313 52.9226C52.5396 52.7492 52.4479 52.5759 52.3562 52.4025C52.297 52.2907 52.2476 52.1763 52.1626 52.0821C51.8599 51.7466 51.5572 51.411 51.2545 51.0754C51.1512 50.9609 51.0479 50.8464 50.9446 50.7319C50.814 50.5871 50.6008 50.8015 50.7309 50.9457C50.9823 51.2245 51.2338 51.5033 51.4853 51.7821L51.9128 52.256C51.9315 52.2767 51.9624 52.3285 51.9887 52.3401C51.978 52.3354 51.9609 52.2933 51.9709 52.3205C51.9756 52.333 51.984 52.3452 51.9903 52.357L52.0539 52.4774C52.1594 52.6766 52.2648 52.8759 52.3702 53.0752C52.4612 53.2472 52.7223 53.0946 52.6313 52.9226Z" fill="#FF8222"/>
<path d="M53.119 52.7206C53.0523 52.4972 52.9857 52.2738 52.919 52.0504L52.9037 52.167C52.9947 51.9587 53.0846 51.75 53.1734 51.5409C53.2382 51.3886 53.3027 51.2361 53.3647 51.0827C53.3975 51.0015 53.4537 50.9027 53.4543 50.8124C53.4547 50.7407 53.4078 50.6685 53.3783 50.6054C53.3273 50.4967 53.2746 50.3889 53.2218 50.2811C53.0773 49.9861 52.9306 49.6921 52.7836 49.3983C52.6899 49.211 52.596 49.0239 52.5018 48.8369C52.4142 48.6631 52.1532 48.8161 52.2407 48.9896C52.5138 49.5313 52.7875 50.073 53.0511 50.6195C53.0778 50.6748 53.1044 50.7302 53.1302 50.7859C53.1381 50.803 53.1457 50.8202 53.1535 50.8373C53.173 50.8799 53.1474 50.8015 53.1555 50.8428C53.158 50.8557 53.1532 50.8459 53.1546 50.8303C53.1556 50.8207 53.1674 50.7578 53.1548 50.7844C53.1467 50.8015 53.1427 50.8224 53.1362 50.8403C53.1138 50.9025 53.0888 50.9638 53.0639 51.0251C52.9865 51.2156 52.9262 51.3565 52.8468 51.542C52.7863 51.6833 52.7253 51.8244 52.664 51.9654C52.6399 52.0207 52.6138 52.0707 52.6285 52.1344C52.6433 52.199 52.6668 52.2628 52.6857 52.3262C52.733 52.4845 52.7802 52.6427 52.8275 52.801C52.883 52.987 53.1749 52.9078 53.119 52.7206Z" fill="#FF8222"/>
<path d="M52.256 53.1643C52.0603 53.0227 51.8647 52.8811 51.669 52.7395L51.7232 52.7937C51.5523 52.4922 51.3813 52.1907 51.2104 51.8892C51.1144 51.7199 50.8531 51.8721 50.9493 52.0418C51.0765 52.2662 51.2038 52.4907 51.3311 52.7152C51.3745 52.7917 51.4141 52.8726 51.4621 52.9463C51.4907 52.9902 51.5464 53.0223 51.5888 53.053L51.7724 53.1858C51.8827 53.2657 51.9931 53.3455 52.1034 53.4254C52.1696 53.4733 52.2719 53.4367 52.3102 53.3711C52.3549 53.2948 52.3224 53.2123 52.256 53.1643Z" fill="#FF8222"/>
<path d="M52.727 53.2228C52.539 52.6735 52.351 52.1242 52.163 51.575C52.1364 51.4974 52.1118 51.4189 52.0833 51.342C52.0616 51.2836 52.0187 51.2376 51.9814 51.1882C51.78 50.9208 51.5787 50.6534 51.3773 50.386C51.2138 50.1691 51.0504 49.952 50.887 49.7351C50.8379 49.6699 50.7564 49.6362 50.6801 49.6808C50.616 49.7184 50.5765 49.8221 50.6259 49.8877C50.9721 50.3474 51.3184 50.8071 51.6646 51.2668L51.7598 51.3932C51.7698 51.4065 51.7883 51.4444 51.8037 51.4515C51.8165 51.4574 51.786 51.3995 51.792 51.4233C51.7947 51.4338 51.7992 51.4442 51.8027 51.4545L51.8448 51.5775L52.1759 52.5449C52.2624 52.7977 52.3489 53.0504 52.4354 53.3032C52.4618 53.3804 52.5392 53.4314 52.6214 53.4088C52.6966 53.3881 52.7535 53.3004 52.727 53.2228Z" fill="#FF8222"/>
<path d="M54.3219 58.998C54.9003 58.998 55.3693 58.4499 55.3693 57.7737C55.3693 57.0975 54.9003 56.5494 54.3219 56.5494C53.7434 56.5494 53.2744 57.0975 53.2744 57.7737C53.2744 58.4499 53.7434 58.998 54.3219 58.998Z" fill="#FF2D77"/>
<path d="M54.5293 58.275C54.894 58.275 55.1897 57.9421 55.1897 57.5315C55.1897 57.1208 54.894 56.7878 54.5293 56.7878C54.1645 56.7878 53.8688 57.1208 53.8688 57.5315C53.8688 57.9421 54.1645 58.275 54.5293 58.275Z" fill="#FF5E97"/>
<path d="M54.6741 57.7737C54.8721 57.7737 55.0326 57.593 55.0326 57.3701C55.0326 57.1472 54.8721 56.9664 54.6741 56.9664C54.4761 56.9664 54.3156 57.1472 54.3156 57.3701C54.3156 57.593 54.4761 57.7737 54.6741 57.7737Z" fill="#FF80AD"/>
<path d="M52.2835 53.9829C53.9645 55.5027 56.0195 56.7182 58.249 57.205C60.2831 57.6491 62.3592 57.3747 64.415 57.5741C64.5547 57.5876 64.694 57.6041 64.8334 57.6202C65.1072 57.6518 64.7278 57.6018 64.8943 57.6281C64.9676 57.6397 65.0413 57.6496 65.1147 57.6612C65.4339 57.7115 65.7515 57.7715 66.067 57.8411C66.6344 57.9663 67.195 58.1227 67.7454 58.309C67.9959 58.3938 68.2443 58.4847 68.4904 58.5815C68.563 58.61 68.635 58.6398 68.7074 58.6685C68.7409 58.6818 68.8685 58.736 68.7047 58.6664C68.8453 58.7262 68.985 58.788 69.1239 58.8515C69.5934 59.0659 70.0531 59.3015 70.5032 59.554C71.3288 60.0172 72.1196 60.5392 72.8892 61.0899C73.2437 61.3436 73.5938 61.6034 73.9429 61.8645C74.0252 61.9261 74.1076 61.9877 74.1898 62.0495C74.2545 62.0982 74.3192 62.1469 74.3833 62.1964C74.2856 62.121 74.4424 62.2431 74.464 62.2601C74.7298 62.4697 74.9913 62.6845 75.2484 62.9047C76.1151 63.6473 76.9285 64.4507 77.6846 65.3056C77.9966 65.6584 78.2988 66.0196 78.5929 66.3875C78.6573 66.4681 78.7214 66.549 78.7851 66.6302C78.81 66.6619 78.8348 66.6937 78.8596 66.7255L78.8964 66.7728C78.9561 66.8499 78.9449 66.8354 78.8628 66.7293C78.9279 66.77 78.9919 66.8977 79.0371 66.9572C79.1037 67.0449 79.1701 67.1329 79.2362 67.221C79.9446 68.1638 80.6417 69.1049 81.4815 69.9366C83.4259 71.8622 85.8125 73.2434 88.3282 74.2807C92.0965 75.8344 96.171 76.5668 100.209 76.9702C100.848 77.0341 101.488 77.0878 102.128 77.1338C102.602 77.1678 103.056 76.6922 103.035 76.2267C103.012 75.7061 102.636 75.3561 102.128 75.3196C100.882 75.2302 99.6389 75.1098 98.4004 74.9482C98.3781 74.9453 98.1016 74.9076 98.3091 74.9362C98.2541 74.9286 98.1992 74.9211 98.1443 74.9135C98.0083 74.8945 97.8724 74.8749 97.7365 74.8549C97.444 74.8118 97.1519 74.7663 96.8602 74.7182C96.3269 74.6304 95.795 74.5339 95.2649 74.428C93.4246 74.0602 91.6031 73.5794 89.8404 72.9322C89.4591 72.7922 89.0815 72.643 88.7061 72.488C88.6544 72.4667 88.5606 72.411 88.7675 72.5141C88.718 72.4894 88.6646 72.4702 88.6138 72.4482C88.5295 72.4118 88.4454 72.3749 88.3614 72.3375C88.1807 72.2571 88.0009 72.1745 87.8221 72.0898C87.1923 71.7912 86.5752 71.4654 85.9761 71.109C85.4374 70.7885 84.9133 70.4432 84.4087 70.0712C84.3513 70.0289 84.2942 69.9863 84.2374 69.9434C84.2039 69.918 84.1712 69.8896 84.1363 69.8664C84.3512 70.0096 84.2698 69.9704 84.2201 69.931C84.1013 69.837 83.9823 69.7432 83.8652 69.6469C83.6501 69.4698 83.4393 69.2875 83.2335 69.0997C82.8506 68.7504 82.4847 68.3825 82.1388 67.9966C81.9778 67.8169 81.821 67.6333 81.6689 67.446C81.5919 67.3513 81.5176 67.2544 81.4414 67.159C81.6436 67.4121 81.4661 67.19 81.4244 67.135C81.3686 67.0614 81.3131 66.9876 81.2577 66.9137C80.142 65.4254 79.0081 63.9629 77.6714 62.6628C76.1595 61.1924 74.4379 59.8958 72.6699 58.7464C70.846 57.5606 68.8411 56.6222 66.716 56.1294C65.528 55.8539 64.3081 55.7126 63.0896 55.6818C62.1167 55.6572 61.1421 55.7012 60.17 55.6454C59.9409 55.6323 59.7122 55.6136 59.4842 55.5874C59.439 55.5822 59.3902 55.5791 59.3452 55.5705C59.5853 55.6161 59.3485 55.5698 59.3056 55.563C59.1621 55.5405 59.019 55.515 58.8766 55.4862C58.3429 55.3783 57.8195 55.224 57.3101 55.0318C57.2417 55.0059 57.1734 54.9795 57.1055 54.9524C57.1272 54.961 56.8565 54.8481 56.9631 54.8942C57.0717 54.9412 56.7946 54.8184 56.8179 54.829C56.7349 54.7914 56.6523 54.753 56.5701 54.7136C56.2951 54.582 56.0249 54.4403 55.76 54.2893C55.3007 54.0275 54.8577 53.7375 54.4332 53.4224C54.3776 53.3811 54.3224 53.3392 54.2673 53.2972C54.4325 53.4231 54.3073 53.3275 54.2664 53.295C54.1834 53.2291 54.1012 53.1622 54.0197 53.0944C53.8658 52.9662 53.7149 52.8345 53.5663 52.7001C53.2143 52.382 52.6263 52.3267 52.2835 52.7001C51.9649 53.0472 51.9076 53.6431 52.2835 53.9829Z" fill="#6110D3"/>
<path d="M46.0337 37.0557C44.6731 36.2134 42.9592 35.1524 41.6678 35.8278C40.6837 36.3426 40.4341 37.6101 40.1671 38.9658C40.1244 39.1826 40.0767 39.4248 40.031 39.6839C39.7833 41.0874 39.594 42.9863 40.5764 44.0139C42.4647 45.989 48.1787 44.2182 49.5583 41.9704C49.7233 41.7015 49.8269 41.4258 49.8539 41.1488C50.0126 39.519 47.5262 37.9797 46.0337 37.0557Z" fill="#FF2D77"/>
<path d="M44.7714 37.2425C43.9041 36.7056 42.8117 36.0293 41.9885 36.4598C41.3612 36.788 41.2021 37.5959 41.0319 38.4601C41.0047 38.5982 40.9743 38.7526 40.9451 38.9178C40.7873 39.8124 40.6666 41.0228 41.2928 41.6778C42.4964 42.9367 46.1386 41.808 47.018 40.3752C47.1232 40.2038 47.1892 40.0281 47.2064 39.8515C47.3076 38.8127 45.7227 37.8315 44.7714 37.2425Z" fill="#FF5E97"/>
<path d="M44.0595 37.3318C43.4754 36.9702 42.7396 36.5147 42.1851 36.8047C41.7626 37.0257 41.6555 37.5698 41.5408 38.1519C41.5225 38.2449 41.502 38.3489 41.4824 38.4601C41.3761 39.0627 41.2948 39.8779 41.7165 40.3191C42.5272 41.167 44.9804 40.4068 45.5726 39.4418C45.6435 39.3263 45.688 39.2079 45.6995 39.089C45.7677 38.3893 44.7002 37.7285 44.0595 37.3318Z" fill="#FF80AD"/>
<path d="M61.5071 39.3072C61.4843 39.188 61.4618 39.0735 61.4406 38.9658C61.1736 37.6101 60.924 36.3426 59.9399 35.8278C58.6485 35.1524 56.9346 36.2134 55.574 37.0557C54.0815 37.9797 51.5951 39.519 51.7538 41.1488C51.7625 41.2382 51.7799 41.3275 51.8041 41.4166C52.4784 43.9068 58.9901 46.1489 61.0313 44.0139C62.105 42.8909 61.7791 40.7276 61.5071 39.3072Z" fill="#FF2D77"/>
<path d="M56.8726 37.2425C57.7399 36.7056 58.8323 36.0293 59.6555 36.4598C60.2828 36.788 60.4419 37.5959 60.6121 38.4601C60.6393 38.5982 60.6697 38.7526 60.6989 38.9178C60.8567 39.8124 60.9774 41.0228 60.3512 41.6778C59.1476 42.9367 55.5054 41.808 54.626 40.3752C54.5208 40.2038 54.4548 40.0281 54.4376 39.8515C54.3364 38.8127 55.9213 37.8315 56.8726 37.2425Z" fill="#FF5E97"/>
<path d="M57.8676 54.5146C58.3343 54.5146 58.7127 54.0723 58.7127 53.5267C58.7127 52.9811 58.3343 52.5389 57.8676 52.5389C57.4008 52.5389 57.0225 52.9811 57.0225 53.5267C57.0225 54.0723 57.4008 54.5146 57.8676 54.5146Z" fill="#FF2D77"/>
<path d="M58.0348 53.9312C58.3291 53.9312 58.5677 53.6626 58.5677 53.3312C58.5677 52.9999 58.3291 52.7313 58.0348 52.7313C57.7405 52.7313 57.502 52.9999 57.502 53.3312C57.502 53.6626 57.7405 53.9312 58.0348 53.9312Z" fill="#FF5E97"/>
<path d="M58.1517 53.5267C58.3115 53.5267 58.441 53.3809 58.441 53.2011C58.441 53.0212 58.3115 52.8754 58.1517 52.8754C57.9919 52.8754 57.8624 53.0212 57.8624 53.2011C57.8624 53.3809 57.9919 53.5267 58.1517 53.5267Z" fill="#FF80AD"/>
<path d="M60.6509 50.5914C61.0355 50.5914 61.3473 50.2269 61.3473 49.7774C61.3473 49.3278 61.0355 48.9634 60.6509 48.9634C60.2663 48.9634 59.9545 49.3278 59.9545 49.7774C59.9545 50.2269 60.2663 50.5914 60.6509 50.5914Z" fill="#FF2D77"/>
<path d="M60.7886 50.1106C61.0311 50.1106 61.2277 49.8893 61.2277 49.6163C61.2277 49.3432 61.0311 49.1219 60.7886 49.1219C60.5461 49.1219 60.3495 49.3432 60.3495 49.6163C60.3495 49.8893 60.5461 50.1106 60.7886 50.1106Z" fill="#FF5E97"/>
<path d="M60.885 49.7773C61.0166 49.7773 61.1233 49.6572 61.1233 49.509C61.1233 49.3608 61.0166 49.2406 60.885 49.2406C60.7533 49.2406 60.6466 49.3608 60.6466 49.509C60.6466 49.6572 60.7533 49.7773 60.885 49.7773Z" fill="#FF80AD"/>
<path d="M57.5845 37.3318C58.1686 36.9702 58.9044 36.5147 59.4588 36.8047C59.8813 37.0257 59.9885 37.5698 60.1031 38.1519C60.1214 38.2449 60.1419 38.3489 60.1615 38.4601C60.2678 39.0627 60.3492 39.8779 59.9274 40.3191C59.1167 41.167 56.6636 40.4068 56.0713 39.4418C56.0004 39.3263 55.956 39.2079 55.9444 39.089C55.8763 38.3893 56.9437 37.7285 57.5845 37.3318Z" fill="#FF80AD"/>
<path d="M52.8298 39.8608C52.8705 40.063 52.8923 40.2745 52.8923 40.4925C52.8923 41.9182 51.9686 43.0739 50.8291 43.0739C49.6897 43.0739 48.766 41.9182 48.766 40.4925C48.766 40.3782 48.7726 40.2658 48.7841 40.1554C48.6093 40.5354 48.5099 40.9683 48.5099 41.4279C48.5099 42.9349 49.5735 44.1566 50.8856 44.1566C52.1976 44.1566 53.2613 42.9349 53.2613 41.4279C53.2613 40.8445 53.1013 40.3043 52.8298 39.8608Z" fill="#E62769"/>
<path d="M50.8291 43.0739C51.9686 43.0739 52.8923 41.9182 52.8923 40.4925C52.8923 40.2745 52.8705 40.0629 52.8298 39.8607C52.4 39.1585 51.6897 38.6992 50.8856 38.6992C49.9737 38.6992 49.1823 39.2896 48.7841 40.1554C48.7726 40.2658 48.766 40.3781 48.766 40.4925C48.766 41.9182 49.6897 43.0739 50.8291 43.0739Z" fill="#FF2D77"/>
<path d="M63.2137 53.3687C65.4911 54.3884 68.8255 51.5738 69.2594 51.1996C70.1555 50.4267 72.6313 48.2913 72.8129 44.7386C72.8889 43.253 72.5393 41.9958 72.1556 41.0821C71.1939 40.5332 70.1945 40.4607 69.9889 40.4489C69.6877 40.4316 68.93 40.3975 68.1004 40.7159C67.5149 41.3094 66.7694 42.148 65.9876 43.3031C64.235 45.8924 64.3173 47.0913 62.3905 49.0803C60.8688 50.651 59.7873 50.9667 59.171 51.0081C59.3533 51.1475 59.5375 51.3015 59.7203 51.4728C60.4228 51.7069 61.2289 52.0551 62.0599 52.5841C62.784 53.0451 62.8162 53.1907 63.2137 53.3687Z" fill="#57626F"/>
<path d="M73.4064 42.2234C73.0564 41.7069 72.6102 41.3415 72.1557 41.0821C72.5394 41.9958 72.889 43.253 72.813 44.7386C72.6314 48.2913 70.1556 50.4267 69.2594 51.1996C68.8255 51.5739 65.4912 54.3884 63.2137 53.3687C62.8163 53.1908 62.7841 53.0451 62.06 52.5841C61.229 52.0551 60.4229 51.7069 59.7203 51.4728C60.0504 51.7821 60.3755 52.1456 60.674 52.5732C61.2257 53.3634 61.5306 54.1469 61.7027 54.7827C62.4425 54.684 62.9771 54.7062 63.0883 54.7102C66.2133 54.8222 69.0441 52.2877 70.449 51.0299C71.6112 49.9893 73.1507 48.611 73.735 46.298C73.9657 45.3849 74.3956 43.6832 73.4064 42.2234Z" fill="#4A535E"/>
<path d="M62.3905 49.0802C64.3173 47.0913 64.235 45.8924 65.9876 43.3031C66.7694 42.148 67.5149 41.3094 68.1004 40.7158C67.9214 40.7845 67.7391 40.8693 67.5572 40.9746C66.3256 41.6877 66.2217 42.6856 64.9284 44.9179C63.8543 46.7718 63.3172 47.6987 62.2996 48.5325C60.8699 49.7038 59.3693 50.3174 58.5619 50.5888C58.7587 50.7099 58.9635 50.8494 59.171 51.0081C59.7873 50.9667 60.8688 50.6509 62.3905 49.0802Z" fill="#6C798A"/>
<path d="M70.2569 47.6925C71.4531 45.9128 71.4573 43.8212 70.2664 43.0207C69.0754 42.2202 67.1402 43.0139 65.9441 44.7936C64.7479 46.5732 64.7437 48.6648 65.9346 49.4653C67.1256 50.2658 69.0608 49.4721 70.2569 47.6925Z" fill="#6C798A"/>
<path d="M69.4494 46.4146C70.1976 45.3015 70.2002 43.9933 69.4553 43.4926C68.7104 42.9919 67.5 43.4884 66.7519 44.6015C66.0037 45.7146 66.0011 47.0228 66.746 47.5235C67.4909 48.0242 68.7013 47.5277 69.4494 46.4146Z" fill="#8696AB"/>
<path d="M58.6602 55.4209C59.0276 54.279 59.8157 54.1257 59.9778 53.115C60.1234 52.2074 59.597 51.6533 59.636 51.3944C59.2724 51.0646 58.905 50.7999 58.5619 50.5887C58.3789 50.6503 58.2317 50.6941 58.1288 50.723C57.3174 51.0725 56.2701 51.6828 55.5386 52.7243C55.239 53.151 55.0451 53.5751 54.9157 53.9442C54.9282 54.2895 54.9851 54.508 54.8075 54.8416C54.5442 55.3362 54.1605 55.3421 54.0189 55.8274C53.9354 56.1133 53.9425 56.5433 54.216 56.8132C54.5697 57.1622 55.2421 57.1185 55.5304 56.8132C55.7862 56.5424 55.6037 56.21 55.6898 55.7897C55.6588 55.6305 55.6497 55.4435 55.6956 55.2435C55.8374 54.6244 56.4813 53.9831 57.1145 54.1539C57.6961 54.3108 58.0392 55.0908 57.824 55.6996C57.7493 55.9109 57.6189 56.0683 57.4826 56.1839C57.4689 56.2197 57.4536 56.2543 57.4363 56.2874C57.2169 56.7085 56.815 56.685 56.7134 57.0761C56.6231 57.4233 56.8299 57.8652 57.1734 58.0619C57.6656 58.3436 58.3289 58.0597 58.5536 57.6676C58.6163 57.5581 58.6379 57.4517 58.6375 57.3454C58.2754 56.6579 58.6324 55.5073 58.6602 55.4209Z" fill="#C1B5FF"/>
<path d="M58.1288 50.723C58.0213 50.7532 57.9621 50.767 57.9621 50.767C57.1943 50.9449 56.4737 51.0044 55.859 51.6213C55.5472 51.9343 55.058 52.5962 54.9389 53.4615C54.9127 53.6525 54.9108 53.808 54.9157 53.9442C55.0451 53.5751 55.239 53.1511 55.5386 52.7244C56.2701 51.6829 57.3174 51.0725 58.1288 50.723Z" fill="#A594FF"/>
<path d="M58.5536 56.2217C58.6828 55.8425 59.0422 55.5451 59.868 55.2359C60.5321 54.9873 61.1705 54.8538 61.7028 54.7827C61.5306 54.1469 61.2257 53.3634 60.6741 52.5732C60.3502 52.1091 59.995 51.72 59.636 51.3944C59.597 51.6533 60.1234 52.2075 59.9779 53.1151C59.8157 54.1257 59.0276 54.2791 58.6602 55.4209C58.6324 55.5073 58.2755 56.658 58.6375 57.3455C58.636 57.0036 58.4033 56.6628 58.5536 56.2217Z" fill="#C1B5FF"/>
<path d="M57.824 55.6996C58.0392 55.0909 57.6961 54.3108 57.1145 54.154C56.4813 53.9832 55.8374 54.6244 55.6955 55.2435C55.6497 55.4435 55.6587 55.6305 55.6898 55.7898C55.7088 55.6971 55.7406 55.6003 55.7933 55.4988C56.0465 55.0111 56.6854 54.5935 57.1077 54.7759C57.5207 54.9544 57.6739 55.6843 57.4825 56.184C57.6188 56.0684 57.7493 55.911 57.824 55.6996Z" fill="#A594FF"/>
<path d="M58.3105 57.4084C58.3419 57.0673 58.0613 56.7627 57.6837 56.728C57.3062 56.6932 56.9747 56.9415 56.9433 57.2825C56.9119 57.6236 57.1925 57.9282 57.5701 57.9629C57.9476 57.9977 58.2791 57.7494 58.3105 57.4084Z" fill="#D4CCFF"/>
<path d="M57.9599 57.2639C57.9797 57.0481 57.8022 56.8553 57.5633 56.8333C57.3244 56.8114 57.1147 56.9685 57.0948 57.1842C57.0749 57.4 57.2525 57.5928 57.4914 57.6148C57.7302 57.6367 57.94 57.4796 57.9599 57.2639Z" fill="#EAE6FF"/>
<path d="M55.5136 56.2468C55.545 55.9058 55.2644 55.6011 54.8869 55.5664C54.5093 55.5316 54.1778 55.7799 54.1464 56.121C54.115 56.462 54.3956 56.7666 54.7732 56.8014C55.1507 56.8361 55.4822 56.5878 55.5136 56.2468Z" fill="#D4CCFF"/>
<path d="M55.163 56.1024C55.1829 55.8866 55.0053 55.6938 54.7664 55.6718C54.5275 55.6499 54.3178 55.807 54.2979 56.0227C54.2781 56.2385 54.4556 56.4313 54.6945 56.4533C54.9334 56.4753 55.1431 56.3182 55.163 56.1024Z" fill="#EAE6FF"/>
<path d="M44.9051 49.2022C44.9487 48.7293 44.6054 48.311 44.1384 48.268C43.6715 48.225 43.2576 48.5736 43.2141 49.0466C43.1705 49.5195 43.5138 49.9378 43.9808 49.9808C44.4478 50.0238 44.8616 49.6752 44.9051 49.2022Z" fill="#D4CCFF"/>
<path d="M44.473 49.0068C44.5005 48.7076 44.2833 48.4429 43.9879 48.4157C43.6924 48.3885 43.4306 48.6091 43.403 48.9083C43.3755 49.2076 43.5927 49.4722 43.8881 49.4994C44.1836 49.5266 44.4455 49.3061 44.473 49.0068Z" fill="#EAE6FF"/>
<path d="M41.5762 49.841C41.6197 49.3681 41.2764 48.9498 40.8094 48.9068C40.3425 48.8638 39.9286 49.2124 39.8851 49.6854C39.8416 50.1583 40.1848 50.5766 40.6518 50.6196C41.1188 50.6626 41.5326 50.314 41.5762 49.841Z" fill="#D4CCFF"/>
<path d="M41.1439 49.6456C41.1714 49.3464 40.9542 49.0817 40.6588 49.0545C40.3633 49.0273 40.1015 49.2479 40.0739 49.5471C40.0464 49.8464 40.2636 50.111 40.559 50.1382C40.8545 50.1654 41.1163 49.9449 41.1439 49.6456Z" fill="#EAE6FF"/>
<path d="M46.4745 57.7737C46.4745 58.3692 46.0615 58.8519 45.5521 58.8519C45.0427 58.8519 44.6298 58.3692 44.6298 57.7737C44.6298 57.1783 45.0427 56.6956 45.5521 56.6956C46.0615 56.6956 46.4745 57.1783 46.4745 57.7737Z" fill="#FF2D77"/>
<path d="M45.3696 58.2152C45.6908 58.2152 45.9512 57.922 45.9512 57.5604C45.9512 57.1988 45.6908 56.9056 45.3696 56.9056C45.0484 56.9056 44.788 57.1988 44.788 57.5604C44.788 57.922 45.0484 58.2152 45.3696 58.2152Z" fill="#FF5E97"/>
<path d="M45.2421 57.7737C45.4165 57.7737 45.5578 57.6146 45.5578 57.4183C45.5578 57.2219 45.4165 57.0628 45.2421 57.0628C45.0677 57.0628 44.9264 57.2219 44.9264 57.4183C44.9264 57.6146 45.0677 57.7737 45.2421 57.7737Z" fill="#FF80AD"/>
<path d="M44.5948 55.0456C44.5948 55.4623 44.3058 55.8001 43.9493 55.8001C43.5928 55.8001 43.3038 55.4623 43.3038 55.0456C43.3038 54.6289 43.5928 54.2911 43.9493 54.2911C44.3058 54.2911 44.5948 54.6289 44.5948 55.0456Z" fill="#FF2D77"/>
<path d="M43.8216 55.3545C44.0464 55.3545 44.2286 55.1493 44.2286 54.8963C44.2286 54.6432 44.0464 54.438 43.8216 54.438C43.5968 54.438 43.4146 54.6432 43.4146 54.8963C43.4146 55.1493 43.5968 55.3545 43.8216 55.3545Z" fill="#FF5E97"/>
<path d="M43.7323 55.0456C43.8543 55.0456 43.9532 54.9342 43.9532 54.7968C43.9532 54.6595 43.8543 54.5481 43.7323 54.5481C43.6103 54.5481 43.5114 54.6595 43.5114 54.7968C43.5114 54.9342 43.6103 55.0456 43.7323 55.0456Z" fill="#FF80AD"/>
<path d="M43.5114 52.5389C43.5114 52.8759 43.2776 53.1492 42.9892 53.1492C42.7008 53.1492 42.467 52.8759 42.467 52.5389C42.467 52.2018 42.7008 51.9285 42.9892 51.9285C43.2776 51.9285 43.5114 52.2018 43.5114 52.5389Z" fill="#FF2D77"/>
<path d="M42.8859 52.7888C43.0677 52.7888 43.2151 52.6228 43.2151 52.4181C43.2151 52.2134 43.0677 52.0474 42.8859 52.0474C42.704 52.0474 42.5566 52.2134 42.5566 52.4181C42.5566 52.6228 42.704 52.7888 42.8859 52.7888Z" fill="#FF5E97"/>
<path d="M42.8137 52.5388C42.9124 52.5388 42.9925 52.4488 42.9925 52.3376C42.9925 52.2265 42.9124 52.1364 42.8137 52.1364C42.715 52.1364 42.635 52.2265 42.635 52.3376C42.635 52.4488 42.715 52.5388 42.8137 52.5388Z" fill="#FF80AD"/>
</svg>
